<svg xmlns="http://www.w3.org/2000/svg" viewBox="0 0 262.58 252.54"><defs><style>.cls-1{fill:#4d1b04;}.cls-2{fill:#fe0000;}.cls-3{fill:#f8ebb6;}.cls-4{fill:#bdba84;}.cls-5{fill:#fefefe;}.cls-6{fill:#f9ebba;}.cls-7{fill:#faecba;}.cls-8{fill:#f8eab9;}.cls-9{fill:#faebbb;}.cls-10{fill:#f9ebb8;}.cls-11{fill:#f7592c;}.cls-12{fill:#f95d32;}.cls-13{fill:#faecbe;}.cls-14{fill:#fef0c0;}.cls-15{fill:#f7eab8;}.cls-16{fill:#eaecb5;}.cls-17{fill:#f1e0ad;}.cls-18{fill:#f2e3b2;}.cls-19{fill:#f7e9b8;}.cls-20{fill:#fd5e3a;}.cls-21{fill:#f95523;}.cls-22{fill:#f4e7b6;}.cls-23{fill:#c7af8c;}.cls-24{fill:#cdbd94;}.cls-25{fill:#fbf6c4;}.cls-26{fill:#d0b993;}.cls-27{fill:#ceb892;}.cls-28{fill:#dac89f;}.cls-29{fill:#fcf5c3;}.cls-30{fill:#d1bb94;}.cls-31{fill:#d1bd93;}.cls-32{fill:#d2be92;}.cls-33{fill:#c6b88f;}.cls-34{fill:#d3bf92;}.cls-35{fill:#cdb792;}.cls-36{fill:#d2bf94;}.cls-37{fill:#d2bb97;}.cls-38{fill:#d3c197;}.cls-39{fill:#d9c89c;}.cls-40{fill:#d2c098;}.cls-41{fill:#d9c39e;}.cls-42{fill:#fbf5c1;}.cls-43{fill:#fef2c7;}.cls-44{fill:#fef5c3;}.cls-45{fill:#d5be99;}.cls-46{fill:#e3d1a4;}.cls-47{fill:#d4c09a;}.cls-48{fill:#d8c196;}.cls-49{fill:#d9c49c;}.cls-50{fill:#dbca9f;}.cls-51{fill:#fdf2c3;}.cls-52{fill:#dac79d;}.cls-53{fill:#d7c49b;}.cls-54{fill:#dac399;}.cls-55{fill:#d9c39b;}.cls-56{fill:#ceb48e;}.cls-57{fill:#dbcca1;}.cls-58{fill:#d8c89e;}.cls-59{fill:#d1bf94;}.cls-60{fill:#d6c89c;}.cls-61{fill:#dac79c;}.cls-62{fill:#dac9a0;}.cls-63{fill:#eae4b3;}.cls-64{fill:#ddc7a6;}.cls-65{fill:#dfcba4;}.cls-66{fill:#d8cea2;}.cls-67{fill:#fef7c4;}.cls-68{fill:#fefecd;}.cls-69{fill:#dfcea0;}.cls-70{fill:#ddcba4;}.cls-71{fill:#fefece;}.cls-72{fill:#d6cea1;}.cls-73{fill:#fef4c3;}.cls-74{fill:#e0cca8;}.cls-75{fill:#dcc49f;}.cls-76{fill:#ddcba3;}.cls-77{fill:#ded7aa;}.cls-78{fill:#edecb5;}.cls-79{fill:#fef4c6;}.cls-80{fill:#e4dfaf;}.cls-81{fill:#937f50;}.cls-82{fill:#59240e;}.cls-83{fill:#5b1e0a;}.cls-84{fill:#5d2009;}.cls-85{fill:#442303;}.cls-86{fill:#681906;}.cls-87{fill:#481d10;}.cls-88{fill:#f5ebb6;}.cls-89{fill:#fbecbe;}.cls-90{fill:#f7eeb9;}.cls-91{fill:#fceebc;}.cls-92{fill:#fdeebc;}.cls-93{fill:#52230b;}.cls-94{fill:#51220a;}.cls-95{fill:#522109;}.cls-96{fill:#572c13;}.cls-97{fill:#552910;}.cls-98{fill:#f1ecb5;}.cls-99{fill:#f6e9b5;}.cls-100{fill:#efedb2;}.cls-101{fill:#5c260f;}.cls-102{fill:#b7b37f;}.cls-103{fill:#b4af7b;}.cls-104{fill:#59220b;}.cls-105{fill:#f2f2f2;}.cls-106{fill:#fcfcfc;}.cls-107{fill:#fff;}</style></defs><title>Favicon1</title><g id="Capa_2" data-name="Capa 2"><g id="Capa_1-2" data-name="Capa 1"><path class="cls-1" d="M84.08,8.08c3.41.41,5.38.63,6-2.14.09-.37,1.17-.87,1.66-.75,6.56,1.55,12.14-4.86,18.81-2.3.43.16,1.2.29,1.4.07C117-2.7,124,3.5,129.51.21c1.76-1,4,2.13,4.72,1.69,5.51-3.33,10.24,1.11,15.23,1,3.11-.1,6.21,1.92,7.6,1.66C163.47,3.33,167.57,8.2,172.9,9c2.94.46,5.5.69,7.19,3.41.34.54,1.11,1.36,1.46,1.27,7.52-2.15,9.64,7.67,16.36,7.34a2.68,2.68,0,0,1,2.56,2.63c.14,1.1.73,2.28,1.61,2.26,7.72-.25,8.53,9.34,15.18,10.52.94,6.38,9.64,6.91,10.24,13.61.14,1.46,1.68,1.88,2.74,2.65,1.89,1.38,3.76,2.85,3.34,5.65-.07.48,0,1.34.2,1.42,6.91,2.63,4.54,11.24,9.68,15,.13.1.35.24.34.35-.37,5.45,4.83,9.12,4.69,14.42a11,11,0,0,0,1.38,6.17c1.7,2.62,3.22,4.93,1.55,8.08a1.63,1.63,0,0,0,0,1.45c5.07,5,1.91,11.6,2.46,17.15.49,5.08,2.52,11.22-.8,16.49-1,1.54-.7,3.28-.49,4.87.36,2.79.31,5-1.6,7.64s1.3,7-1.5,10.08a7,7,0,0,0,1.92,1.21c1.6.37,3.3.35,4.89.76,7.53,2,7.28,4.19,4.43,9.17a67.57,67.57,0,0,0-8.11,24.58c-.28,2-1.16,2.58-2.84,3.31-6.59,2.88-13.87,2.7-20.56,4.78-3.92,1.23-8.5,2.87-9.7,8-.14.63-.29,1.68-.64,1.77-6.34,1.6-8.43,8.87-14.44,10.8-1.55.5-2.77,1-2.94,2.82a3.5,3.5,0,0,1-3.49,3c-3.8.23-6.21,2.43-8.55,5-1.16,1.24-2.41,2.13-4.3,1.66-.74-.19-2.16-.18-2.33.18-3.28,7.11-12.18,2.89-16.39,8.13-.46.57-1.85.44-2.81.51s-1.94-.44-2.45-.05c-4.7,3.6-10.45,2.29-15.59,3.61-2.58.65-5.74.07-7.21.77-6,2.85-11.76-.78-17.51.39-2.08.42-4.27,1-6-.93-.32-.34-1-.8-1.24-.68-6.3,3.15-11.46-2.88-17.44-2.12a4.9,4.9,0,0,1-4.55-1.38,5.91,5.91,0,0,0-5.49-1.64A4.4,4.4,0,0,1,82,244c-2.48-2.54-5.31-4.23-9.13-4.18a5,5,0,0,1-3.64-2.23c-1.3-2.3-3-2.82-5.37-2.55-.32,0-.82.1-1-.08-3.66-4.21-8.83-6.43-12.94-9.87-2-1.66-3.09-4.2-6.18-4.51-.7-.07-1.8-.79-1.91-1.36-1.12-6.26-7.48-7.84-10.92-12.05-2.2-2.69-6.94-.59-10.38-2-1.94-.77-4.23-.63-6.18-1.39-2.56-1-4.93-2-3.89-6,1.45-5.62-2.57-9.89-5.09-14.42-1.66-3-3.89-5.64-4.8-9.06-1.37-5.07-.31-7.79,4.67-8.9,4.35-1,4.15-2.29,1.45-5-1.49-1.53-2.45-3.29-1.33-5.79a6,6,0,0,0-.52-5.27c-1.59-2.88-.82-6.75-1.65-9.07-2.07-5.81.71-11.33-.85-16.7-.7-2.4-1.27-4.43.74-6.36.23-.22.55-.69.47-.84-3.35-6.23,3.1-11.73,1.29-17.81a3.53,3.53,0,0,1,.83-3.25c1.84-2.34,1.52-5.52,2.4-7.57,2.33-5.48,3.54-11.57,7.11-16.52.58-.79,2.08-1.51,2-2.11-1-7.32,7.56-9.69,8.16-16.13.12-1.29,1.31-1.74,2.37-2.21.75-.33,2.05-.8,2-1.19-.14-7.77,9.66-7.94,11-14.54.24-1.16,1.39-1.75,2.7-1.83,2.55-.14,4.48-1,4.27-4.08a.56.56,0,0,1,.2-.45c5.32-2.91,9.86-7.1,15.12-9.93,1.75-.94,4-.73,4.88-3.18.16-.44.6-1,1-1.09C74.84,13.45,79.88,10.12,84.08,8.08Z"/><path class="cls-2" d="M125.48,20c29.9-.11,54.66,9.18,74.94,28.3,25.88,24.42,37.27,54.78,33.35,90.52a114.25,114.25,0,0,1-4.05,19.48c-.63,2.18-1.7,3-3.86,2.93a118.61,118.61,0,0,0-20.29.84c-3.46.51-4.48-.49-2.93-4,5.7-12.88,7.38-26.39,6-40.39A77.91,77.91,0,0,0,195.87,82c-9.78-15-23-25.77-39.84-31.63-30-10.43-57.35-5.18-81.54,15.18C59.86,77.87,51,94.06,47.88,112.77c-3.37,20,.6,39,11.15,56.44.58,1,1.86,1.74,1.31,3-.7,1.6-2.34.94-3.54.92-6.38-.1-12.78-.73-19.11.13-4.34.59-6.29-1.53-7.75-5.15-7.9-19.58-10.8-39.69-6.7-60.57,7.56-38.43,29.82-65,65.66-80.11C101.07,22.3,113.94,19.55,125.48,20Z"/><path class="cls-3" d="M90.53,175.26l4.71-.27c3.18.75,6.18-.77,9.3-.76l19-2c2,.46,4,.94,5.92-.33a107.47,107.47,0,0,1,17.07-1.72c2.16,1.31,4.48-.77,6.65.29,3.49,3.26,8,2.06,11.26.87,5-1.85,10.06-.46,15-1.6,3.13-.71,6.34-1.52,9.54-2.13,1.22-1.33,3.25-.24,4.5-1.5l10-.87a19.38,19.38,0,0,0,9-.13,11.45,11.45,0,0,1,5.58-.13c2.09-.68,4.25-.24,6.36-.38,2.45.76,2.11,2,.2,2.8a13.87,13.87,0,0,1-4.34.66c-3.62.22-7.34-.51-9.73,1.21a82,82,0,0,1,18.65-1.67c2.16,1.79,4.57.84,6.92.6,2.08-.2,4.39.84,6.12-1.2a2.88,2.88,0,0,1,1.19-.61c3,0,3,2,2.68,4.12-.47,3-.44,5.93,1.72,8.39a4.38,4.38,0,0,1,1.5,1.19c2.5,1,2.76,3.2,2.14,5.23-.53,1.78-1.71,3.54-4.18,2.89-.07,1.51,1.06,1.51,1.92,1.92,1.82.86.67,2.31.46,3.45-.27,1.54-1.42.86-2.33.64l-8.12-2c.64-3.18-1.44-3.59-3.8-3.74a48.6,48.6,0,0,0-10.93.48c-10.05,1.67-20.17-.42-30.2.87-3.58,1.61-7.4.23-11.12.69-2.91.35-4.78,1.56-6.89,3-5.6-1.76-11.15-3.1-16.53.73a3.8,3.8,0,0,1-3.37.49c-6.72-2.34-13.65-1.2-20.51-1.36a8.92,8.92,0,0,0-4.8,1.08,4.34,4.34,0,0,1-1.34.24c-1.71.3-3.59-1.67-5.18.4-1.64,1.56-4.1,1.58-5.73,3.14a2.16,2.16,0,0,1-2.72-.15c-3.43-3.55-7.63-2.86-11.83-2.28a10.34,10.34,0,0,1-1.36.32c-4.19.73-8.63-.66-12.63,1.56-2.61,1.62-6.5-1.14-8.5,2.51a2.31,2.31,0,0,1-1.85.39c-1.83-1.25-4.17.74-6-.89-.55-.46-1-1-.56-1.73.55-.36,1.21-.21,1.79-.38.07,0,0-.22,0-.22-.79.49-2,.07-2.53,1.06a3.26,3.26,0,0,1-1.34.25c-3.91-1.34-7.79,1.58-11.61-.11-1.24,1.42,0,3.11-.88,4.41a1.41,1.41,0,0,1-1.2.51c-1.5-.71-3.06-.56-4.61-2.14-3.73-3.81-8.5-2.19-12.93-.7a2.22,2.22,0,0,1-1.1-.66c-3.14-1.33-6.46-1.44-9.8-1.44-2.77,0-6.12.91-7.48-2.32-1.65-3.92-3.24-8.15-1.78-12.48.8-2.38,3-3.31,5.65-3.07,5,.45,9.92,0,14.89,0,2.3,0,4.7,0,6.18-2.29,3.2-1.88,6.16,0,9.22.42-.45-1.14-2.33-.54-2.74-1.88A218.44,218.44,0,0,1,80.19,176C83.58,175,87.14,176.3,90.53,175.26Z"/><path class="cls-4" d="M127.88,232.79A105.63,105.63,0,0,1,74.17,218c-1.7-1-5.56-1.39-4.21-4.39s3-7.21,6.89-7.17c12.39.15,24.61-3,37.18-.52a74.9,74.9,0,0,0,46.78-5.58c3.73-1.72,7.58-2.26,11.53-2.83a4.94,4.94,0,0,1,5.08,2.29c2.59,3.46,5.05,7,7.93,10.25,2.68,3,2.3,4.61-1.15,6.73C167,227.28,148.39,232.43,127.88,232.79Z"/><path class="cls-5" d="M242.77,161.92l-4.84-1c10.82-36.86,5.22-71.07-16.79-102.26-14.55-20.61-34.62-34.4-58.48-42.14a105.73,105.73,0,0,0-34.94-5.35c-22.1.47-42.73,6.13-61.36,18.06-23.44,15-39.61,35.79-48,62.49a112,112,0,0,0-1.13,65.47,9,9,0,0,1,.41,2.41c0,1,1.65,2,.05,3a3.9,3.9,0,0,1-3.79.16,2.22,2.22,0,0,1-1.27-2.93c1.9-3.22-.18-5.61-1.31-8.24a8.41,8.41,0,0,1-.72-2.3c-.71-6.77-2.27-13.61-1.77-20.29.44-5.92,0-11.87,1-17.94,1-5.61,2.9-11.3,3.2-17.31.23-4.39,2.43-10,5.55-14.25,1.44-2,3.4-3.62,2-6.48-.22-.46,0-1.65.36-1.82,5.43-2.68,4.66-10,9.76-12.93a3.64,3.64,0,0,0,1.88-3.27c.06-2,.54-3.71,3.1-4.28A5.71,5.71,0,0,0,39.45,47a9.84,9.84,0,0,1,5.69-5.83,4.87,4.87,0,0,0,3.43-3.83c.14-.74.68-1.9,1.2-2,5.53-1,7.59-7.51,13.24-8.3A3.94,3.94,0,0,0,65.13,26c5.52-5.67,12.42-8.49,20-9.88a2.61,2.61,0,0,0,2.2-1.75,2.31,2.31,0,0,1,2.13-1.71c5.59,1.68,9.87-4.09,15.38-2.62.78.21,2.09.37,2.42,0,3.95-4.85,9.52-.8,14.16-2.69C125.6,5.6,130.72,10,135,6.14c4.13,3.6,9.68.61,14.08,3,2.15,1.18,4.35,2.16,6.87.92a1.7,1.7,0,0,1,1.46,0c3.92,2.85,9,2.53,13,4.68,2.54,1.36,4.36,3.94,7.72,2.42a1,1,0,0,1,.93.16c2.84,5.45,10.16,4.27,13.43,9.14,1.12,1.66,2.66,3,5,2.59.46-.08,1.32,0,1.41.21,2,5.23,8.54,5.74,11,10.5.38.72.67,2,1.17,2.08,5.79,1,6.16,7.74,10.72,10.08,1.6.83,2.32,2.75,2.92,4.48.86,2.49,1.68,5,4.73,5.65.31.07.85.3.84.42-.58,6,5.91,9,6.26,14.6,0,.67-.17,1.77.13,1.93,5.36,2.83,3.24,9,5.84,13,1.17,1.82,2.11,3.89,1.28,6.36a4.39,4.39,0,0,0,1.44,5c.59.51,1.45,1.55,1.27,2-2.38,5.58,3.12,11,.23,16.58-.15.28-.27.77-.13,1,3.32,4.52-.86,9.51.87,14.14a3.6,3.6,0,0,1,0,2c-1,4.28-3,8.11-2.26,13C245.65,154.52,241.85,157.73,242.77,161.92Z"/><path class="cls-5" d="M217.08,206.88c-5.12,5.09-12.06,8.5-16,15.2a2.41,2.41,0,0,1-2.6,1.11c-2.1-.3-3.52.81-4.68,2.29a11.83,11.83,0,0,1-7.07,4.21c-2.19.48-4.08,1.22-5,3.46-.25.58-.84,1.54-1.13,1.49-5.82-1-9.47,5.27-15.19,4.5-.65-.08-1.7-.25-1.93.08-3.11,4.36-8.14,2.25-12,3.76a16.81,16.81,0,0,1-6.72,1.25c-2.58-.07-5.18-.68-7.46,1.61-1.6,1.62-3.27-.9-5.1-.73-4.67.43-9.49-.8-13.86-.55-7.71.44-14.4-1.5-21.26-4.07a9,9,0,0,0-3.88-.13c-.73.07-1.67,1.31-2.17.54-3.38-5.19-10.79-3-14.26-7.85-.1-.13-.25-.34-.36-.33-6,.7-8.81-5-13.66-6.67-1.91-.66-4-1.68-5.09-3.64-1.27-2.27-2.66-4.06-5.69-3.41-.48.1-1.56-.4-1.61-.73-.82-5.6-7.23-6.29-9.52-10.86,3.45-.95,5.76.16,8.31,2.51,18.38,16.91,39.75,27.38,64.82,30.27,36.29,4.19,67.42-6.62,94.13-31.09A8.83,8.83,0,0,1,217.08,206.88Z"/><path class="cls-6" d="M47.56,178.13c.2,3-1.36,4.17-4.23,4-6.27-.38-12.55.47-18.85-.43a3.69,3.69,0,0,0-3.86,4.16,37.21,37.21,0,0,0,.86,3.84c1.49,7.83,1.48,7.83,9.08,7.42.73.58,1.57,1.08,1.61,2.17a4.07,4.07,0,0,1-1.47,3.06,6.67,6.67,0,0,1-2.63.24,2,2,0,0,1-1-.66c-1.65-1.43-3.56-.73-5.39-.64a4.72,4.72,0,0,0-1.08.69c-2.29.12-3.74-2.21-6.25-2-1.08.1-.87-1.36.16-2a1.31,1.31,0,0,0,.49-2.1c-1.52-3.32,1.55-3.11,3.14-4.11-1.49-.85-2.13-2.61-3.65-3.46l-.94-1.08c-.63-.91,0-1.66.32-2.43,1-1.48-.11-2.88-.19-4.32a3.47,3.47,0,0,1,2.74-3.73c1.36-.38,2.87.33,4.16-.58,5.13-.06,10.26-.35,15.32.79-.21-.63.18.93-.27.44-.05-.06-.29.07-.44.11.7,1.21,1.69.78,2.77.64C41.12,177.74,44.34,177.13,47.56,178.13Z"/><path class="cls-7" d="M193.56,189.12c5.78-2.25,11.88-1.31,17.64-.73s10.89-1.66,16.43-1.18a91.49,91.49,0,0,0,10.47-.09c2.11-.06,3.05,1.5,3.59,2.94.73,2-1.22,1.84-2.4,2.19-12.58-.76-25.17-.53-37.76-.25-1.81-.84-3.73-.15-5.58-.44A3.73,3.73,0,0,1,193.56,189.12Z"/><path class="cls-7" d="M103.73,195.26c4.66-1.39,9.54-3.06,13.24,2.24.41.59,1.16.23,1.59-.37,3.81,0,7.56-3.24,11.44-.26a1.63,1.63,0,0,1-.44,1.41c-4.92,1.37-10,1.56-15,1.76-1.54-.91-3.25-.2-4.87-.48-.64-.11-1,.35-.4.2.24,0,.46.17.63.54-4.68,1.49-9.58,1-14.35,1.67a9,9,0,0,0-2.06-.76c-2.29-.42-5.84.37-3.92-4.09,4.23-3.72,9.33-1.34,14.17-1.86.49.36.27,1.11.37,1.77C104.2,196.32,104.24,195.62,103.73,195.26Z"/><path class="cls-8" d="M242.55,167.13c0,.93,2.18,2.61-.79,2.53-1.74,0-3.47-.35-5.2-.54a8.76,8.76,0,0,1-3.06-2.87c-.29-.8-.18-1.41.79-1.59A10,10,0,0,1,238,165c3.6.09,7.28-.6,10.75,1,1.08,2,2.49.33,3.75.35a26.48,26.48,0,0,1,3.35.67c1.1.37,3.06.2,2.63,2-.29,1.21-.57,3-2.64,3.05-.45,0-2.33-.79-1,1.09,1.62,2.36.45,4.09-1.29,5.69a4.71,4.71,0,0,0-5.95,1.22c-3.73-2.24-3.37-5.87-2.67-9.21.52-2.45.77-3.93-2.33-3.79l-.23-.29C242.07,167.17,242.14,167.27,242.55,167.13Z"/><path class="cls-9" d="M129.56,198.28v-1.16c3.85-2.32,8-2,11.52-1.62-2.83-2.05-7.09,1.51-10.52-1.38,1.07-2.35,3.2-1.9,5.17-2,5.13-.3,10.29.55,15.39-.57a4.19,4.19,0,0,1,2.35.55c2.95,1.3,6.16,4.28,7.82-1.44,4.2,1.15,8.75-1.92,12.77,1,.79.59,1.39,1.43,2.5,1.45.39-.43.76-.39,1.12,0-6.3,2.2-13,1.8-19.43,2.42C148.69,196.52,139.21,198.39,129.56,198.28Z"/><path class="cls-8" d="M189.56,168.12c.38,3.87-1.81.77-2.74,1.1-5.44,1.94-10.88,2-16.63,2.11a62.57,62.57,0,0,0-13.32,2.27c-2.6.67-3.4,0-3.31-2.48-1.17-1.33-3.12.32-4.26-1.13a124.76,124.76,0,0,1,20.86-2c3.07-1,6.31.26,9.37-.75l2.65-.25C184.72,166.87,187.46,165.34,189.56,168.12Z"/><path class="cls-8" d="M16.56,177.14c-1.1,1.11-2.41,2.12-2,4-1,1.33,1.55,2.66,0,4l-1.05,2.11C11,186,8,185,10.27,181.19c.7-1.15-.29-1.28-1-1.66-3.81-2.06-3.8-2.08-5.59-6.17L16.83,176A1.64,1.64,0,0,0,16.56,177.14Z"/><path class="cls-10" d="M39.56,200.12c5.53-2.66,10.95-4.69,15.41,1.9.34.51,1.91,0,2.58,1-4,1.3-8,.61-12.06.43-1.74-.07-3.5,0-5.24-.13l-1.72,0C37.83,201.87,38.46,200.92,39.56,200.12Z"/><path class="cls-10" d="M58.56,203c-.38-1.85-.76-3.7-1.31-6.36,4.84,2.58,9.73-1.16,14.31,1.5.75,4.06-1.74,4.56-4.82,4.4-.95-.47-1.78-.52-2.16.74H62C60.83,203.56,59.64,204,58.56,203Z"/><path class="cls-10" d="M177.68,193.17l-1.12,0c3-5.55,8.05-3.73,12.68-3.51a25.53,25.53,0,0,0,4.32-.49,1.84,1.84,0,0,1,2,2c-.48.68-1.55.35-2,1.14a9.91,9.91,0,0,1-5.08.7c-2.33-.41-4.67-.83-7,.2Z"/><path class="cls-11" d="M202.8,200.28c-.68,3.52-3.85,5.09-6.29,6.65s-2.94-1.93-4.1-3.43c-.24-1.47-1-3.1,1.15-3.87C198.62,196.52,200.71,196.67,202.8,200.28Z"/><path class="cls-12" d="M202.8,200.28c-3.16-2.59-3.89-2.34-6.68,1-1.29,1.56-1.55-1.06-2.57-1.15-.52-.4-1.21-.48-1.7-.93-.74-1-2.45-1.21-2.24-2.91,6-.61,12.1.28,18.71-1.3C206.73,197.61,205.55,199.72,202.8,200.28Z"/><path class="cls-13" d="M66.56,202.12c3,.36,4.28-1.47,5-4h1a.58.58,0,0,1,1,0l1,1c1.28,2.29,3.1,1.85,5,1h2l.75-.12a19,19,0,0,1,6.85.29c1.72.84,3.72-.24,5.4.83l1,.85c-10,.52-20,1.73-30,1.28C65.23,202.29,65.48,201.83,66.56,202.12Z"/><path class="cls-14" d="M47.56,178.13c-3.64.18-7.38-.43-10.74,1.73-1.18.76-1.39-.41-2-1.25-1.08-1.63.15-1.42,1-1.64a122.94,122.94,0,0,1,17.38,0c1.32.46,3.1-.43,4,1.17.44.77,1.13,1.84.31,2.66a1.6,1.6,0,0,1-2.24-.11C53.22,178.25,50.37,178.29,47.56,178.13Z"/><path class="cls-15" d="M14.45,188.32c4.06-1.22,3,4,7.37,4.15-3.13,1.52-7.13-1.13-6.26,3.44-.25.45-.57.53-1,.16C13.91,193.5,11.63,191,14.45,188.32Z"/><path class="cls-16" d="M58.56,203l3.45.27a75.2,75.2,0,0,1-21.76,0c1.19-.3,1.52-2.55,3.24-1.54,4.51,2.65,9.37.88,14.06,1.24Z"/><path class="cls-17" d="M238,165l-4.4.28c-1.69,1.51-3.73,1.15-5.73,1.05a4.76,4.76,0,0,1-2.31-1.06l-7.44-.26A60.29,60.29,0,0,1,238,165Z"/><path class="cls-3" d="M30.56,202.12l1-3C34,198,36,199.46,38,200.48a2.79,2.79,0,0,1-.47,2.76l-2-.12C34.07,201.89,32.05,203.31,30.56,202.12Z"/><path class="cls-18" d="M189.56,168.12c-2.22-2-5-.46-7.38-1.11,3.71-1.38,7.6-.45,11.38-.87.14.75,1.13,2.19-.83,1.51C191.44,167.19,190.58,167.71,189.56,168.12Z"/><path class="cls-19" d="M104.54,174.23c-2.3,1.92-5.87-.24-7.92,2.48L95.24,175C98.28,173.92,101.43,174.41,104.54,174.23Z"/><path class="cls-20" d="M192.55,199.12l1,1-1.14,3.38c-1.45-1.15-2.83-2.36-3.32-4.27A2.44,2.44,0,0,1,192.55,199.12Z"/><path class="cls-21" d="M192.55,199.12l-3.45.11c-1.55-1.28-2.65-2.48.51-2.95C190.39,197.43,192.73,197,192.55,199.12Z"/><path class="cls-22" d="M247.56,180.12c1.32-3.66,3.47-3.23,5.95-1.22-1.31.6-3.16-.62-4.11,1.22Z"/><path class="cls-19" d="M90.53,175.26c-3.33,1.8-6.89.51-10.34.76C83.58,175,87.07,175.29,90.53,175.26Z"/><path class="cls-23" d="M205.36,222.88c-.94-.25-1.68-.7-1.55-1.66a1.66,1.66,0,0,1,1.79-1.4,1.27,1.27,0,0,1,1.42,1.56A1.84,1.84,0,0,1,205.36,222.88Z"/><path class="cls-24" d="M223.11,46.94c-.16.84-.5,1.52-1.54,1.35a1.7,1.7,0,0,1-1.49-1.64,1.33,1.33,0,0,1,1.57-1.4C222.61,45.36,222.89,46.13,223.11,46.94Z"/><path class="cls-25" d="M212.55,165.14a9.65,9.65,0,0,1-9,.13Z"/><path class="cls-26" d="M44.18,38.49a1.29,1.29,0,0,1-1.29-1.22,1.62,1.62,0,0,1,1.45-1.71A1.2,1.2,0,0,1,45.81,37,1.59,1.59,0,0,1,44.18,38.49Z"/><path class="cls-27" d="M9.14,95.35a1.58,1.58,0,0,1,.07,3.14A1.4,1.4,0,0,1,7.69,97C7.67,96,8.4,95.68,9.14,95.35Z"/><path class="cls-28" d="M248.32,102.17a1.49,1.49,0,0,1-1.77-1.37,1.35,1.35,0,0,1,1.37-1.66,2.08,2.08,0,0,1,1.35,1.18A1.26,1.26,0,0,1,248.32,102.17Z"/><path class="cls-29" d="M27.55,201.14c0,.33,0,.66,0,1,.35.18.46.36.35.55s-.24.27-.35.27l-7-1v-.87A10.86,10.86,0,0,1,27.55,201.14Z"/><path class="cls-30" d="M118,4.22a1.57,1.57,0,0,1-3.13.24c-.19-1,.51-1.44,1.4-1.49A1.49,1.49,0,0,1,118,4.22Z"/><path class="cls-31" d="M249.12,148.93a1.38,1.38,0,0,1-1.66-1.34,1.51,1.51,0,0,1,1.24-1.76c1-.17,1.48.5,1.6,1.33S249.81,148.58,249.12,148.93Z"/><path class="cls-18" d="M179.53,167.26c-3,1.71-6.23.62-9.37.75C173.22,167,176.38,167.21,179.53,167.26Z"/><path class="cls-32" d="M28.78,53.12a1.42,1.42,0,0,1,1.62,1.45,1.54,1.54,0,0,1-1.61,1.52,1.15,1.15,0,0,1-1.31-1.15A1.71,1.71,0,0,1,28.78,53.12Z"/><path class="cls-33" d="M62.91,21.26a1.31,1.31,0,0,1,1.61,1.3,1.4,1.4,0,0,1-1.38,1.59c-.89.13-1.59-.17-1.61-1.2A1.67,1.67,0,0,1,62.91,21.26Z"/><path class="cls-34" d="M229.4,56.17a1.79,1.79,0,0,1,1.72,1.43,1.23,1.23,0,0,1-1.2,1.65,1.57,1.57,0,0,1-1.73-1.37A1.37,1.37,0,0,1,229.4,56.17Z"/><path class="cls-35" d="M106.47,4.38a1.54,1.54,0,0,1,1.68,1.3c.18,1-.48,1.46-1.33,1.59a1.33,1.33,0,0,1-1.71-1.19C105,5.17,105.61,4.65,106.47,4.38Z"/><path class="cls-36" d="M93.1,10.24c-.85-.21-1.53-.69-1.3-1.62a1.52,1.52,0,0,1,1.73-1.28A1.39,1.39,0,0,1,94.87,9C94.72,9.86,94,10.2,93.1,10.24Z"/><path class="cls-37" d="M198.64,229c-2.08-.13-2.56-.76-2.45-1.63a1.58,1.58,0,0,1,1.75-1.33c.89,0,1.58.52,1.36,1.49A4.89,4.89,0,0,1,198.64,229Z"/><path class="cls-38" d="M186.49,17.62c0,1-.62,1.59-1.54,1.51a1.55,1.55,0,0,1-1.49-1.65,1.21,1.21,0,0,1,1.26-1.24A1.65,1.65,0,0,1,186.49,17.62Z"/><path class="cls-39" d="M10.7,156.68C10.51,158,10,158.6,9,158.43a1.36,1.36,0,0,1-1.16-1.82c.16-.51.91-1.21,1.35-1.17A1.64,1.64,0,0,1,10.7,156.68Z"/><path class="cls-40" d="M247.21,158.6c-1,0-1.66-.46-1.53-1.44a2.2,2.2,0,0,1,1-1.5c1-.46,1.59.32,1.78,1.11S248.11,158.31,247.21,158.6Z"/><path class="cls-41" d="M13.75,166.5c-.19.59-.23,1.35-1.07,1.38-1.21.06-1.69-.73-1.74-1.8,0-.84.69-1.1,1.31-1.11C13.2,164.94,13.65,165.59,13.75,166.5Z"/><path class="cls-42" d="M252.51,166.35c-1,.54-2,1.43-3,1.55-1.81.21-2.13-.63-.71-1.9Z"/><path class="cls-43" d="M149.3,170c1.32.74,3.27-.89,4.26,1.13-2.32-.37-4.85.87-7-.91Z"/><path class="cls-44" d="M193.59,192.26a1.92,1.92,0,0,1,2-1.14c2,.3,4.17-.74,6,.88Z"/><path class="cls-45" d="M153.49,5.22c.92.2,1.52.74,1.39,1.7A1.31,1.31,0,0,1,153,8c-.52-.19-1.23-.91-1.21-1.37A1.45,1.45,0,0,1,153.49,5.22Z"/><path class="cls-46" d="M163.07,7.4c.73.24,1.43.69,1.38,1.65s-.9,1.19-1.75,1.15A1.14,1.14,0,0,1,161.51,9,1.44,1.44,0,0,1,163.07,7.4Z"/><path class="cls-47" d="M85.52,12.27a1.68,1.68,0,0,1-1.68,1.41A1.24,1.24,0,0,1,82.62,12a1.4,1.4,0,0,1,1.81-1.09A1.23,1.23,0,0,1,85.52,12.27Z"/><path class="cls-48" d="M71.29,19c-.8-.25-1.56-.67-1.34-1.61a1.62,1.62,0,0,1,1.81-1.25c.87.1,1.53.64,1.32,1.57A1.68,1.68,0,0,1,71.29,19Z"/><path class="cls-49" d="M198,25.11a1.19,1.19,0,0,1-1.35,1.1A1.6,1.6,0,0,1,195,24.68a1.31,1.31,0,0,1,1.65-1.35A1.6,1.6,0,0,1,198,25.11Z"/><path class="cls-50" d="M51.56,31.87a1.22,1.22,0,0,1-1.17-1.19A1.42,1.42,0,0,1,51.77,29c.88-.1,1.69.31,1.57,1.32A1.85,1.85,0,0,1,51.56,31.87Z"/><path class="cls-51" d="M27.56,203v-.82h3c1.68.25,3.6-.66,5,1Z"/><path class="cls-52" d="M216.15,39.68c-.23.8-.47,1.72-1.54,1.44a2.24,2.24,0,0,1-1.34-1.2,1.24,1.24,0,0,1,1.18-1.7C215.47,38.09,215.81,38.91,216.15,39.68Z"/><path class="cls-53" d="M35,48.08c-.81.06-1.36-.18-1.5-.94a1.44,1.44,0,0,1,1.11-1.85c.9-.22,1.67.13,1.75,1.12S35.68,47.81,35,48.08Z"/><path class="cls-54" d="M217.26,212a1.92,1.92,0,0,1-1.43,1.77c-1.05.25-1.5-.55-1.47-1.4a1.45,1.45,0,0,1,1.6-1.46C216.56,211,217.28,211.12,217.26,212Z"/><path class="cls-55" d="M10.27,87.64c.32-1.14.78-1.75,1.76-1.64.71.08,1.27.53,1.14,1.25-.17,1-.77,1.88-1.95,1.58C10.78,88.71,10.51,88,10.27,87.64Z"/><path class="cls-56" d="M45.57,215.39a4.84,4.84,0,0,1,.82,1.5c.2.69-.3,1.21-1.08,1.24a1.49,1.49,0,0,1-1.65-1.41C43.59,216.13,43.73,215.39,45.57,215.39Z"/><path class="cls-57" d="M19.83,65.8c.33-.78.77-1.51,1.73-1.43s1.23,1,1,1.79a1.34,1.34,0,0,1-1.82,1.08A1.17,1.17,0,0,1,19.83,65.8Z"/><path class="cls-58" d="M236.5,65.9a1.31,1.31,0,0,1-1.26,1.65,1.51,1.51,0,0,1-1.6-1.42,1.39,1.39,0,0,1,1.26-1.7C235.75,64.36,236.25,65.09,236.5,65.9Z"/><path class="cls-59" d="M242.28,78.71c-.24.73-.65,1.45-1.66,1.15a1.58,1.58,0,0,1-1.06-1.93,1.15,1.15,0,0,1,1.39-1A1.48,1.48,0,0,1,242.28,78.71Z"/><path class="cls-60" d="M251.31,110.75c-.24.71-.7,1.4-1.68,1.16s-1.17-1-1-1.9A1.23,1.23,0,0,1,250,109,1.39,1.39,0,0,1,251.31,110.75Z"/><path class="cls-61" d="M54.34,223.41a1.4,1.4,0,0,1-2,.71,1.37,1.37,0,0,1-.77-2,1.15,1.15,0,0,1,1.6-.6A1.63,1.63,0,0,1,54.34,223.41Z"/><path class="cls-62" d="M63.75,229.4a1.67,1.67,0,0,1,1.64,1.46c.15,1-.62,1.41-1.48,1.33a1.39,1.39,0,0,1-1.39-1.6A1.22,1.22,0,0,1,63.75,229.4Z"/><path class="cls-63" d="M177.08,240.19c-.6-.2-1.34-.2-1.39-1.11a1.45,1.45,0,0,1,1.46-1.62,1.18,1.18,0,0,1,1.38,1.08C178.64,239.59,177.91,239.94,177.08,240.19Z"/><path class="cls-64" d="M223.59,204.46a1.57,1.57,0,0,1-1.37,1.7c-.89.17-1.64-.19-1.5-1.25a1.82,1.82,0,0,1,1.61-1.58A1.11,1.11,0,0,1,223.59,204.46Z"/><path class="cls-65" d="M186,232.87c.59.18,1.34.17,1.38,1.07a1.52,1.52,0,0,1-1.46,1.65,1.14,1.14,0,0,1-1.37-1.07C184.43,233.48,185.11,233.1,186,232.87Z"/><path class="cls-66" d="M6.49,111.83a1.47,1.47,0,1,1,.08-2.93,1.15,1.15,0,0,1,1.16,1.22A1.48,1.48,0,0,1,6.49,111.83Z"/><path class="cls-67" d="M181.55,193.16c2.27-1.71,4.6-1.44,7-.2Z"/><path class="cls-68" d="M6,121.54a1.09,1.09,0,0,1-1.24-1.16c0-.7.09-1.41.93-1.48A1.13,1.13,0,0,1,7,120,1.45,1.45,0,0,1,6,121.54Z"/><path class="cls-69" d="M244.63,86.1a1.46,1.46,0,0,1,1.29,1.73,1.21,1.21,0,0,1-1.29,1.2,1.39,1.39,0,0,1-1.29-1.72A1.27,1.27,0,0,1,244.63,86.1Z"/><path class="cls-70" d="M252,134.1c-.3.94-.8,1.32-1.54,1.15-1-.23-1.2-1-1-1.9a1.09,1.09,0,0,1,1.43-.93A1.36,1.36,0,0,1,252,134.1Z"/><path class="cls-71" d="M8.07,143.56c-.16.91-.6,1.59-1.6,1.46a1.39,1.39,0,0,1,.31-2.7C7.51,142.25,7.92,142.85,8.07,143.56Z"/><path class="cls-72" d="M206.12,30.78a1.32,1.32,0,0,1-1.39,1.16,1.53,1.53,0,0,1-1.44-1.7,1.08,1.08,0,0,1,1.34-1.09A1.53,1.53,0,0,1,206.12,30.78Z"/><path class="cls-73" d="M109.89,200.3A3.24,3.24,0,0,1,109,200c-.41-.28-.67-.83.09-.8,1.84,0,3.85-.76,5.46.83Z"/><path class="cls-74" d="M141.44,4.55c-.26.73-.72,1.42-1.63,1.21A1.54,1.54,0,0,1,138.61,4c.08-.82.78-1,1.37-1A1.36,1.36,0,0,1,141.44,4.55Z"/><path class="cls-75" d="M18.51,74.56c-.37,1.1-.78,1.81-1.79,1.74a1.14,1.14,0,0,1-1.09-1.38c.11-.86.57-1.67,1.58-1.45C17.73,73.58,18.14,74.23,18.51,74.56Z"/><path class="cls-76" d="M74.28,235.61c-.28.82-.78,1.4-1.71,1.24a1.46,1.46,0,0,1-1.19-1.75,1.08,1.08,0,0,1,1.33-1A1.7,1.7,0,0,1,74.28,235.61Z"/><path class="cls-77" d="M131.45,4.6c-.4.21-.93.7-1.45.7-.9,0-1.62-.63-1.3-1.57.13-.38,1.06-.61,1.64-.67C131.09,3,131.49,3.51,131.45,4.6Z"/><path class="cls-78" d="M37.57,203.24v-3.11c.43-.8.9-1.51,2-1,0,.33,0,.66,0,1-.34,1-.69,2.09-1,3.13Z"/><path class="cls-3" d="M66.56,202.12l-1,1.13h-1l-1.51-2.63C64.73,200.21,65.65,201.15,66.56,202.12Z"/><path class="cls-79" d="M129.51,171.93c-1.87,1.91-3.87,1.55-5.92.33Z"/><path class="cls-80" d="M251.85,124.06c-.11.66-.37,1.24-1.11,1.28a1.15,1.15,0,0,1-1.29-1.5,1.82,1.82,0,0,1,1.05-1.29C251.51,122.37,251.72,123.25,251.85,124.06Z"/><path class="cls-81" d="M14.61,196.07c.31-.06.63-.12,1-.16.64.35,1.84.42,1.4,1.48s-1.57.74-2.49.6C14.51,197.35,14.56,196.71,14.61,196.07Z"/><path class="cls-67" d="M16.56,177.14c-.86-.61-.24-.88.27-1.18l3.71.22C19.48,177.59,17.92,177,16.56,177.14Z"/><path class="cls-82" d="M29.66,125.12l-.22-1.76c-1.19-3.1,1.89-3.7,3.15-5.36,3.95-.53,6.8.46,6.92,5.12C36.27,124,33.56,127.48,29.66,125.12Z"/><path class="cls-83" d="M225.71,122.06c2.13,2.31.55,4-1.19,5.25a4.5,4.5,0,0,1-6-.27c-2.12-1.92-3-4.32-1-7a5.21,5.21,0,0,1,3.33,1.46,8.09,8.09,0,0,0,1.75,1.45C223.81,123.26,224.35,121.2,225.71,122.06Z"/><path class="cls-84" d="M29.66,125.12c3.55.61,6.31-2.62,9.85-2A4.07,4.07,0,0,1,36.25,128C33.5,128.65,31,128.07,29.66,125.12Z"/><path class="cls-85" d="M225.71,122.06c-1.57.32-1,4.91-4.15,2.07.9-1.35.17-1.83-1.08-2l-3-2,1.09-.92c1.65-.43,3.34.29,5-.1C225.94,118.9,225.47,120.72,225.71,122.06Z"/><path class="cls-86" d="M32.59,118c0,2.38-3.43,2.79-3.15,5.36C27.79,120,29.62,118.66,32.59,118Z"/><path class="cls-87" d="M223.6,119c-1.63,2-3.32.82-5,.1C220.23,117.79,221.89,117.12,223.6,119Z"/><path class="cls-88" d="M130.56,194.12c4.67.09,9.42-.73,15.32,1.56l-16.32,1.44c-3.67-1.23-7.33,1.86-11,0,1.34-2.32,4.35-1.29,6-3,1.66-1.26,3.33.2,5,0Z"/><path class="cls-89" d="M225.57,165.27l1.92,0c.62.88,1.83,1.16,2.23,2.25-.05.21-.11.41-.16.62-6.2.67-12.39,1.36-18.6,2-1.29.13-2.76.26-3.42-1.32-.16-.38-.16-1.22,0-1.3,1.15-.5,2.29-.68,2.67,1C214.84,165,221.16,169.71,225.57,165.27Z"/><path class="cls-90" d="M94.56,201.12h-6c-2.18-1.32-4.78.3-7-1h0c.7-2.72,1.48-5.65,5-2.81,1.38,1.1,2-1.21,3-.19C88.88,201.38,93.36,199.2,94.56,201.12Z"/><path class="cls-10" d="M39.55,199.13l-2,1c-2.29,1.43-3.92-1.16-6-1l-1-2,9.17.82c.1,0,.27.28.23.38A4.4,4.4,0,0,1,39.55,199.13Z"/><path class="cls-90" d="M79.56,200.12c-2.25,2.59-4.24,3.87-5-1,1.4.1,2.61.6,4.18-.36C80.64,197.6,79.66,199.39,79.56,200.12Z"/><path class="cls-91" d="M234.56,166.12l2,3c-2.35-.23-5.25,3.39-7-1C230.83,166.47,233.05,167.19,234.56,166.12Z"/><path class="cls-92" d="M129.56,194.12c-1.67,1.8-3.33-.7-5,0C126.22,192.37,127.89,192.82,129.56,194.12Z"/><path class="cls-90" d="M73.56,198.13h-1c1.12-1.5,2.57-.86,4.3-.93C75.73,198.62,74.55,197.9,73.56,198.13Z"/><path class="cls-93" d="M160.77,219.6c.77-.85,1.84-.51,2.77-.72,1.53-.34,3.17-1.12,2.5-2.94-.95-2.54-2,.19-3,.34-2.49.36-4.39-.19-5-2.73-.7-2.71.73-4.48,3.25-5.26a4.13,4.13,0,0,1,5.13,1.94c1.51,2.55,3.3,5.18,1.52,8.27a5.1,5.1,0,0,1-5.45,2.63A1.87,1.87,0,0,1,160.77,219.6Z"/><path class="cls-94" d="M117.34,218.64c-1.1,2.65.17,7.28-5,7.44-3,.09-5-1.32-5-4.79.09-4.52,2.5-8.35,5.44-8.25C116.14,213.15,117.36,215.21,117.34,218.64Z"/><path class="cls-95" d="M133.81,222a4.72,4.72,0,0,1-4.68,3.18c-3.73.09-4.34-2.63-4.53-5.26-.21-2.95,1.73-4.67,4.58-4.77C133,215,133.63,217.82,133.81,222Z"/><path class="cls-96" d="M92.64,217.66c2,1.69,4.37,1.31,5.69,3.52-1.37,0-2.63.33-3.57-.07-2.06-.87-5.47-1.13-5.63-3.3-.2-2.66,3.41-1.56,5.11-2.63.67-.42,1.62-.33,2.37-.64,1.09-.46,2.19-1.11,1.92-2.53-.32-1.69-1.49-2.07-3-1.48-1,.4-2.08.71-2.32-.68-.2-1.2,1-1.61,1.93-1.77,2.73-.44,5.18.22,6.1,3s-1,4.26-3.43,5.1C96.26,216.72,94.65,217.09,92.64,217.66Z"/><path class="cls-97" d="M143,217.91c.14-1.77,1.55-2.35,2.24-3.44,1.35-2.14,2.33-1.44,2.83.53.75,2.89,1.31,5.81,2,8.72.21.89.2,1.69-.8,2-1.45.46-1.59-.62-1.79-1.62a19.33,19.33,0,0,1-.79-3.89C146.72,217.4,145.22,217.11,143,217.91Z"/><path class="cls-98" d="M27.55,201.14l-7,0a8.61,8.61,0,0,1,7.38-.75.77.77,0,0,1-.06.44C27.81,200.93,27.66,201,27.55,201.14Z"/><path class="cls-99" d="M14.56,185.13c.64-1.34-3.2-2.67,0-4C15,182.46,17.61,183.79,14.56,185.13Z"/><path class="cls-3" d="M104.58,195.44c1.17,1-.41,2.3-.79,3.65-.08-1.16-.11-2.32-.25-3.46C103.48,195.09,103.56,195,104.58,195.44Z"/><path class="cls-3" d="M234.56,166.12c-.65,3.22-3.24,1.57-5,2-.2-1.3-3.41-.45-2.07-2.87l6.12,0Z"/><path class="cls-3" d="M242.55,167.13c-1,.3-2,1.48-3.09.11-.13-.17-.08-.74,0-.8a2.25,2.25,0,0,1,3.06.68Z"/><path class="cls-100" d="M81.56,200.13c2.32.38,4.88-.92,7,1C86.22,200.74,83.67,202,81.56,200.13Z"/><path class="cls-101" d="M220.48,122.08c.9-1.06,2.07-1.4,2.76-.08s-.33,2-1.68,2.13Z"/><path class="cls-102" d="M162.19,210.28c1.4,0,2.14.61,2.17,1.73,0,1.44-1,1.93-2.25,2a1.44,1.44,0,0,1-1.64-1.41A2.15,2.15,0,0,1,162.19,210.28Z"/><path class="cls-103" d="M114.81,218.52c-.56,2.12,0,4.88-2.75,5.3-1.67.26-2.74-1.38-2.23-3,.63-2,0-5.11,3.12-5.42C115.06,215.18,114.59,217.32,114.81,218.52Z"/><path class="cls-104" d="M130.39,219.65c-.11.8-.56,1.29-1.28,1.27a1.22,1.22,0,0,1-1.29-1.61,1.2,1.2,0,0,1,1.45-1C130.1,218.4,130.28,219,130.39,219.65Z"/><path class="cls-105" d="M117.71,124.89l11.33.75c-3.22,17.15-13.13,32.54-27.42,32.54-15.06,0-19.83-21-15.84-42.8a113.14,113.14,0,0,1,4.51-17.52c-5.28-4.38-7.47-10.76-8.5-16l9.14-5.38a30.8,30.8,0,0,0,3.09,12c7.6-16.64,18.54-26.9,28.84-26.9,9.78,0,16.35,6,14.42,17.27C134.19,95.73,116,103,107,103a17.59,17.59,0,0,1-2.58-.12c-.9,3.5-1.67,7.13-2.44,10.88-3.74,20.9-3.09,35.17,3,35.17C110,148.92,115.27,136.91,117.71,124.89ZM106.25,96.23h.39c11.2,0,16.86-12.51,18.15-20,.9-4.63.26-8.14-2.06-8.14C118.23,68.07,111.27,79.71,106.25,96.23Z"/><path class="cls-106" d="M181.23,121l3.19,1c-7.78,14.87-18.75,28.16-36.39,29.63a33,33,0,0,1-6.38.68c-10.14,0-14.45-6.35-13.34-10.75s14.31-11.34,13.48-8.51c-2.09,6-2.78,12.22,1.94,12.22,2.64,0,5.55-3.22,6.81-8.31,2.22-9-1.4-16.13-2.64-24-3.62,6.17-6.11,11-7.92,13.7l-3.33-1.08c4.72-7.63,8.89-15.55,11.25-22.78V103a9.23,9.23,0,0,1,.27-1,20.71,20.71,0,0,1,8.47-12l12.22,1.46s-4.44,4.8-5.69,10c-2.64,10.66,7.64,22,4.58,34.23a16.4,16.4,0,0,1-1.8,4.59C171.78,135.32,176,129.16,181.23,121Z"/><path class="cls-107" d="M77.21,162.52a195.87,195.87,0,0,1,29.33-6.25q14.73-2.09,29.52-2.85c9.86-.51,19.74-.64,29.65-.29a197,197,0,0,1,29.83,3.07l0,.7-14.79,1-14.78.86-29.58,1.69-29.59,1.47-14.79.72-14.8.62Z"/></g></g></svg>