<svg xmlns="http://www.w3.org/2000/svg" viewBox="0 0 262.55 252.58"><defs><style>.cls-1{fill:#4d1b04;}.cls-2{fill:#fe0000;}.cls-3{fill:#f8ebb6;}.cls-4{fill:#faebb9;}.cls-5{fill:#bdba84;}.cls-6{fill:#fefefe;}.cls-7{fill:#f9ebba;}.cls-8{fill:#faecba;}.cls-9{fill:#f8eab9;}.cls-10{fill:#faebbb;}.cls-11{fill:#f9ebb8;}.cls-12{fill:#f7592c;}.cls-13{fill:#f95d32;}.cls-14{fill:#faecbe;}.cls-15{fill:#fef0c0;}.cls-16{fill:#f7eab8;}.cls-17{fill:#eaecb5;}.cls-18{fill:#f1e0ad;}.cls-19{fill:#f2e3b2;}.cls-20{fill:#f7e9b8;}.cls-21{fill:#fd5e3a;}.cls-22{fill:#f95523;}.cls-23{fill:#f4e7b6;}.cls-24{fill:#c7af8c;}.cls-25{fill:#cdbd94;}.cls-26{fill:#fbf6c4;}.cls-27{fill:#d0b993;}.cls-28{fill:#ceb892;}.cls-29{fill:#dac89f;}.cls-30{fill:#fcf5c3;}.cls-31{fill:#d1bb94;}.cls-32{fill:#d1bd93;}.cls-33{fill:#d2be92;}.cls-34{fill:#c6b88f;}.cls-35{fill:#d3bf92;}.cls-36{fill:#cdb792;}.cls-37{fill:#d2bf94;}.cls-38{fill:#d2bb97;}.cls-39{fill:#c9b78e;}.cls-40{fill:#d3c197;}.cls-41{fill:#d9c89c;}.cls-42{fill:#d2c098;}.cls-43{fill:#d9c39e;}.cls-44{fill:#fbf5c1;}.cls-45{fill:#fef2c7;}.cls-46{fill:#fef5c3;}.cls-47{fill:#d5be99;}.cls-48{fill:#e3d1a4;}.cls-49{fill:#d4c09a;}.cls-50{fill:#d8c196;}.cls-51{fill:#d9c49c;}.cls-52{fill:#dbca9f;}.cls-53{fill:#fdf2c3;}.cls-54{fill:#dac79d;}.cls-55{fill:#d7c49b;}.cls-56{fill:#dac399;}.cls-57{fill:#d9c39b;}.cls-58{fill:#ceb48e;}.cls-59{fill:#dbcca1;}.cls-60{fill:#d8c89e;}.cls-61{fill:#d1bf94;}.cls-62{fill:#d6c89c;}.cls-63{fill:#dac79c;}.cls-64{fill:#dac9a0;}.cls-65{fill:#eae4b3;}.cls-66{fill:#d5bf97;}.cls-67{fill:#ddc7a6;}.cls-68{fill:#dfcba4;}.cls-69{fill:#dccaa0;}.cls-70{fill:#d8cea2;}.cls-71{fill:#fef7c4;}.cls-72{fill:#fefecd;}.cls-73{fill:#dfcea0;}.cls-74{fill:#ddcba4;}.cls-75{fill:#fefece;}.cls-76{fill:#d6cea1;}.cls-77{fill:#fef4c3;}.cls-78{fill:#e0cca8;}.cls-79{fill:#dcc49f;}.cls-80{fill:#ddcba3;}.cls-81{fill:#ded7aa;}.cls-82{fill:#edecb5;}.cls-83{fill:#fef4c6;}.cls-84{fill:#e4dfaf;}.cls-85{fill:#eee0b5;}.cls-86{fill:#937f50;}.cls-87{fill:#59240e;}.cls-88{fill:#5b1e0a;}.cls-89{fill:#5d2009;}.cls-90{fill:#442303;}.cls-91{fill:#681906;}.cls-92{fill:#481d10;}.cls-93{fill:#f5ebb6;}.cls-94{fill:#fbecbe;}.cls-95{fill:#f7eeb9;}.cls-96{fill:#fceebc;}.cls-97{fill:#fdeebc;}.cls-98{fill:#52230b;}.cls-99{fill:#51220a;}.cls-100{fill:#522109;}.cls-101{fill:#572c13;}.cls-102{fill:#552910;}.cls-103{fill:#f1ecb5;}.cls-104{fill:#f6e9b5;}.cls-105{fill:#efedb2;}.cls-106{fill:#5c260f;}.cls-107{fill:#b7b37f;}.cls-108{fill:#b4af7b;}.cls-109{fill:#59220b;}.cls-110{fill:#f2f2f2;}.cls-111{fill:#fcfcfc;}.cls-112,.cls-113,.cls-114,.cls-115,.cls-116,.cls-117,.cls-118,.cls-119,.cls-120,.cls-121,.cls-122,.cls-123,.cls-124,.cls-125,.cls-126{isolation:isolate;font-family:Arial-BoldMT, Arial;font-weight:700;}.cls-112,.cls-113{font-size:11px;}.cls-112,.cls-113,.cls-114,.cls-115,.cls-116,.cls-117,.cls-118,.cls-119,.cls-120,.cls-121,.cls-122,.cls-123,.cls-124,.cls-125,.cls-126,.cls-127{fill:#fff;}.cls-113{letter-spacing:-0.04em;}.cls-114{font-size:11.02px;}.cls-115{font-size:10.99px;}.cls-116{font-size:11.05px;}.cls-117,.cls-120{font-size:10.97px;}.cls-118{font-size:11.05px;}.cls-119,.cls-126{font-size:11px;}.cls-119{letter-spacing:-0.04em;}.cls-120{letter-spacing:-0.04em;}.cls-121{font-size:11px;}.cls-122{font-size:10.99px;}.cls-123{font-size:11.03px;}.cls-124{font-size:11.07px;}.cls-125{font-size:11.05px;}</style></defs><title>Recurso 11</title><g id="Capa_2" data-name="Capa 2"><g id="Capa_1-2" data-name="Capa 1"><path class="cls-1" d="M84.06,8.07c3.41.41,5.38.63,6-2.14.09-.37,1.17-.87,1.66-.75,6.56,1.55,12.14-4.86,18.81-2.3.43.16,1.2.29,1.4.07,5-5.66,12,.54,17.56-2.75,1.76-1,4,2.13,4.72,1.69,5.51-3.33,10.24,1.11,15.23,1,3.11-.1,6.21,1.92,7.6,1.66,6.41-1.23,10.51,3.64,15.84,4.44,2.94.46,5.5.69,7.19,3.41.34.54,1.11,1.36,1.46,1.27,7.52-2.15,9.64,7.67,16.36,7.34a2.68,2.68,0,0,1,2.56,2.63c.14,1.1.73,2.28,1.61,2.26,7.72-.25,8.53,9.34,15.18,10.52.94,6.38,9.64,6.91,10.24,13.61.14,1.46,1.68,1.88,2.74,2.65,1.89,1.38,3.76,2.85,3.34,5.65-.07.48,0,1.34.2,1.42,6.91,2.63,4.54,11.24,9.68,15,.13.1.35.24.34.35-.37,5.45,4.83,9.12,4.69,14.42a11.06,11.06,0,0,0,1.38,6.17c1.7,2.62,3.22,4.93,1.55,8.08a1.61,1.61,0,0,0,0,1.45c5.07,5,1.91,11.6,2.46,17.15.49,5.08,2.52,11.22-.8,16.49-1,1.54-.7,3.28-.49,4.87.36,2.79.31,5-1.6,7.64s1.3,7-1.5,10.08a7.24,7.24,0,0,0,1.92,1.21c1.6.37,3.3.35,4.89.76,7.53,2,7.28,4.19,4.43,9.17a67.5,67.5,0,0,0-8.11,24.58c-.28,2-1.16,2.58-2.84,3.31-6.59,2.88-13.87,2.7-20.56,4.78-3.92,1.23-8.5,2.87-9.7,8-.14.63-.29,1.68-.64,1.77-6.34,1.6-8.43,8.87-14.44,10.8-1.55.5-2.77,1-2.94,2.82a3.5,3.5,0,0,1-3.49,3c-3.8.23-6.21,2.43-8.55,5-1.16,1.24-2.41,2.13-4.3,1.66-.74-.19-2.16-.18-2.33.18-3.28,7.11-12.18,2.89-16.39,8.13-.46.57-1.85.44-2.81.51s-1.94-.44-2.45,0c-4.7,3.6-10.45,2.29-15.59,3.61-2.58.65-5.74.07-7.21.77-6,2.85-11.76-.78-17.51.39-2.08.42-4.27,1-6-.93-.32-.34-1-.8-1.24-.68-6.3,3.15-11.46-2.88-17.44-2.12a4.93,4.93,0,0,1-4.55-1.38,5.9,5.9,0,0,0-5.49-1.64A4.43,4.43,0,0,1,82,244c-2.48-2.54-5.31-4.23-9.13-4.18a5,5,0,0,1-3.64-2.23c-1.3-2.3-3-2.82-5.37-2.55-.32,0-.82.1-1-.08-3.66-4.21-8.83-6.43-12.94-9.87-2-1.66-3.09-4.2-6.18-4.51-.7-.07-1.8-.79-1.91-1.36-1.12-6.26-7.48-7.84-10.92-12.05-2.2-2.69-6.94-.59-10.38-2-1.94-.77-4.23-.63-6.18-1.39-2.56-1-4.93-2-3.89-6,1.45-5.62-2.57-9.89-5.09-14.42-1.66-3-3.89-5.64-4.8-9.06-1.37-5.07-.31-7.79,4.67-8.9,4.35-1,4.15-2.29,1.45-5-1.49-1.53-2.45-3.29-1.33-5.79a6,6,0,0,0-.52-5.27c-1.59-2.88-.82-6.75-1.65-9.07-2.07-5.81.71-11.33-.85-16.7-.7-2.4-1.27-4.43.74-6.36.23-.22.55-.69.47-.84-3.35-6.23,3.1-11.73,1.29-17.81a3.51,3.51,0,0,1,.83-3.25c1.84-2.34,1.52-5.52,2.4-7.57,2.33-5.48,3.54-11.57,7.11-16.52.58-.79,2.08-1.51,2-2.11-1-7.32,7.56-9.69,8.16-16.13.12-1.29,1.31-1.74,2.37-2.21.75-.33,2-.8,2-1.19-.14-7.77,9.66-7.94,11-14.54.24-1.16,1.39-1.75,2.7-1.83,2.55-.14,4.48-1,4.27-4.08a.56.56,0,0,1,.2-.45c5.32-2.91,9.86-7.1,15.12-9.93,1.75-.94,4-.73,4.88-3.18a1.84,1.84,0,0,1,1-1.09C74.82,13.44,79.86,10.11,84.06,8.07Z"/><path class="cls-2" d="M125.46,20c29.9-.11,54.66,9.18,74.94,28.3,25.88,24.42,37.27,54.78,33.35,90.52a114.45,114.45,0,0,1-4.05,19.48c-.63,2.18-1.7,3-3.86,2.93a118.61,118.61,0,0,0-20.29.84c-3.46.51-4.48-.49-2.93-4,5.7-12.88,7.38-26.39,6-40.39A78,78,0,0,0,195.85,82c-9.78-15-23-25.77-39.84-31.63-30-10.43-57.35-5.18-81.54,15.18C59.84,77.86,51,94.05,47.86,112.76c-3.37,20,.6,39,11.15,56.44.58,1,1.86,1.74,1.31,3-.7,1.6-2.34.94-3.54.92-6.38-.1-12.78-.73-19.11.13-4.34.59-6.29-1.53-7.75-5.15-7.9-19.58-10.8-39.69-6.7-60.57C30.78,69.1,53,42.53,88.88,27.42,101.05,22.29,113.92,19.54,125.46,20Z"/><path class="cls-3" d="M90.51,175.25l4.71-.27c3.18.75,6.18-.77,9.3-.76l19-2c2,.46,4,.94,5.92-.33a107.35,107.35,0,0,1,17.07-1.72c2.16,1.31,4.48-.77,6.65.29,3.49,3.26,8,2.06,11.26.87,5-1.85,10.06-.46,15-1.6,3.13-.71,6.34-1.52,9.54-2.13,1.22-1.33,3.25-.24,4.5-1.5l10-.87a19.42,19.42,0,0,0,9-.13A11.46,11.46,0,0,1,218,165c2.09-.68,4.25-.24,6.36-.38,2.45.76,2.11,2,.2,2.8a13.89,13.89,0,0,1-4.34.66c-3.62.22-7.34-.51-9.73,1.21a81.66,81.66,0,0,1,18.65-1.67c2.16,1.79,4.57.84,6.92.6,2.08-.2,4.39.84,6.12-1.2a2.82,2.82,0,0,1,1.19-.61c3,0,3,2,2.68,4.12-.47,3-.44,5.93,1.72,8.39a4.45,4.45,0,0,1,1.5,1.19c2.5,1,2.76,3.2,2.14,5.23-.53,1.78-1.71,3.54-4.18,2.89-.07,1.51,1.06,1.51,1.92,1.92,1.82.86.67,2.31.46,3.45-.27,1.54-1.42.86-2.33.64l-8.12-2c.64-3.18-1.44-3.59-3.8-3.74a48.75,48.75,0,0,0-10.93.48c-10.05,1.67-20.17-.42-30.2.87-3.58,1.61-7.4.23-11.12.69a14.51,14.51,0,0,0-6.89,3c-5.6-1.76-11.15-3.1-16.53.73a3.81,3.81,0,0,1-3.37.49c-6.72-2.34-13.65-1.2-20.51-1.36a8.92,8.92,0,0,0-4.8,1.08,4.34,4.34,0,0,1-1.34.24c-1.71.3-3.59-1.67-5.18.4-1.64,1.56-4.1,1.58-5.73,3.14a2.16,2.16,0,0,1-2.72-.15c-3.43-3.55-7.63-2.86-11.83-2.28a10.73,10.73,0,0,1-1.36.32c-4.19.73-8.63-.66-12.63,1.56-2.61,1.62-6.5-1.14-8.5,2.51a2.3,2.3,0,0,1-1.85.39c-1.83-1.25-4.17.74-6-.89-.55-.46-1-1-.56-1.73.55-.36,1.21-.21,1.79-.38.07,0,0-.22,0-.22-.79.49-2,.07-2.53,1.06a3.23,3.23,0,0,1-1.34.25c-3.91-1.34-7.79,1.58-11.61-.11-1.24,1.42,0,3.11-.88,4.41a1.44,1.44,0,0,1-1.2.51c-1.5-.71-3.06-.56-4.61-2.14-3.73-3.81-8.5-2.19-12.93-.7a2.27,2.27,0,0,1-1.1-.66c-3.14-1.33-6.46-1.44-9.8-1.44-2.77,0-6.12.91-7.48-2.32-1.65-3.92-3.24-8.15-1.78-12.48.8-2.38,3-3.31,5.65-3.07,5,.45,9.92,0,14.89,0,2.3,0,4.7,0,6.18-2.29,3.2-1.88,6.16,0,9.22.42-.45-1.14-2.33-.54-2.74-1.88A218.74,218.74,0,0,1,80.17,176C83.56,175,87.12,176.29,90.51,175.25Z"/><path class="cls-4" d="M81.19,172c-8.5,1.72-8.94,1.53-13.42-5.26C37.72,121.15,65.83,64,115,55.08c39.16-7.12,77.63,19,84.48,58.53a73.47,73.47,0,0,1-5.44,43.2c-2.34,5.31-5.36,7.55-11,6.17,23.71-39.5,3.61-77.52-19.56-91.72-26.48-16.21-63.7-13.75-86.63,15C59,108.53,56.36,144.47,81.19,172Z"/><path class="cls-5" d="M127.86,232.78A105.67,105.67,0,0,1,74.15,218c-1.7-1-5.56-1.39-4.21-4.39s3-7.21,6.89-7.17c12.39.15,24.61-3,37.18-.52a74.92,74.92,0,0,0,46.78-5.58c3.73-1.72,7.58-2.26,11.53-2.83a4.93,4.93,0,0,1,5.08,2.29c2.59,3.46,5,7,7.93,10.25,2.68,3,2.3,4.61-1.15,6.73C167,227.27,148.37,232.42,127.86,232.78Z"/><path class="cls-6" d="M242.75,161.91l-4.84-1c10.82-36.86,5.22-71.07-16.79-102.26C206.57,38,186.5,24.25,162.64,16.51a105.76,105.76,0,0,0-34.94-5.35c-22.1.47-42.73,6.13-61.36,18.06-23.44,15-39.61,35.79-48,62.49a112,112,0,0,0-1.13,65.47,9,9,0,0,1,.41,2.41c0,1,1.65,2,.05,3a3.93,3.93,0,0,1-3.79.16,2.22,2.22,0,0,1-1.3-2.86l0-.07c1.9-3.22-.18-5.61-1.31-8.24a8.43,8.43,0,0,1-.72-2.3c-.71-6.77-2.27-13.61-1.77-20.29.44-5.92,0-11.87,1-17.94,1-5.61,2.9-11.3,3.2-17.31.23-4.39,2.43-10,5.55-14.25,1.44-2,3.4-3.62,2-6.48-.22-.46,0-1.65.36-1.82,5.43-2.68,4.66-10,9.76-12.93A3.65,3.65,0,0,0,32.56,55c.06-2,.54-3.71,3.1-4.28A5.72,5.72,0,0,0,39.43,47a9.84,9.84,0,0,1,5.69-5.83,4.87,4.87,0,0,0,3.43-3.83c.14-.74.68-1.9,1.2-2,5.53-1,7.59-7.51,13.24-8.3a3.94,3.94,0,0,0,2.12-1c5.52-5.67,12.42-8.49,20-9.88a2.62,2.62,0,0,0,2.2-1.75,2.29,2.29,0,0,1,2.13-1.71C95,14.33,99.31,8.56,104.82,10c.78.21,2.09.37,2.42,0,4-4.85,9.52-.8,14.16-2.69C125.58,5.59,130.7,10,135,6.13c4.13,3.6,9.68.61,14.08,3,2.15,1.18,4.35,2.16,6.87.92a1.7,1.7,0,0,1,1.46,0c3.92,2.85,9,2.53,13,4.68,2.54,1.36,4.36,3.94,7.72,2.42a1,1,0,0,1,.93.16c2.84,5.45,10.16,4.27,13.43,9.14,1.12,1.66,2.66,3,5,2.59.46-.08,1.32,0,1.41.21,2,5.23,8.54,5.74,11,10.5.38.72.67,2,1.17,2.08,5.79,1,6.16,7.74,10.72,10.08,1.6.83,2.32,2.75,2.92,4.48.86,2.49,1.68,5,4.73,5.65.31.07.85.3.84.42-.58,6,5.91,9,6.26,14.6,0,.67-.17,1.77.13,1.93,5.36,2.83,3.24,9,5.84,13,1.17,1.82,2.11,3.89,1.28,6.36a4.39,4.39,0,0,0,1.44,5c.59.51,1.45,1.55,1.27,2-2.38,5.58,3.12,11,.23,16.58a1.25,1.25,0,0,0-.13,1c3.32,4.52-.86,9.51.87,14.14a3.58,3.58,0,0,1,0,2c-1,4.28-3,8.11-2.26,13C245.63,154.51,241.83,157.72,242.75,161.91Z"/><path class="cls-6" d="M217.06,206.87c-5.12,5.09-12.06,8.5-16,15.2a2.41,2.41,0,0,1-2.6,1.11c-2.1-.3-3.52.81-4.68,2.29a11.86,11.86,0,0,1-7.07,4.21c-2.19.48-4.08,1.22-5,3.46-.25.58-.84,1.54-1.13,1.49-5.82-1-9.47,5.27-15.19,4.5-.65-.08-1.7-.25-1.93.08-3.11,4.36-8.14,2.25-12,3.76a16.82,16.82,0,0,1-6.72,1.25c-2.58-.07-5.18-.68-7.46,1.61-1.6,1.62-3.27-.9-5.1-.73-4.67.43-9.49-.8-13.86-.55-7.71.44-14.4-1.5-21.26-4.07a8.92,8.92,0,0,0-3.88-.13c-.73.07-1.67,1.31-2.17.54-3.38-5.19-10.79-3-14.26-7.85-.1-.13-.25-.34-.36-.33-6,.7-8.81-5-13.66-6.67-1.91-.66-4-1.68-5.09-3.64C56.37,220.13,55,218.34,52,219c-.48.1-1.56-.4-1.61-.73-.82-5.6-7.23-6.29-9.52-10.86,3.45-1,5.76.16,8.31,2.51,18.38,16.91,39.75,27.38,64.82,30.27,36.29,4.19,67.42-6.62,94.13-31.09A8.82,8.82,0,0,1,217.06,206.87Z"/><path class="cls-7" d="M47.54,178.12c.2,3-1.36,4.17-4.23,4-6.27-.38-12.55.47-18.85-.43a3.7,3.7,0,0,0-3.89,3.48,3.87,3.87,0,0,0,0,.68c.22,1.29.51,2.57.86,3.84,1.49,7.83,1.48,7.83,9.08,7.42.73.58,1.57,1.08,1.61,2.17a4.09,4.09,0,0,1-1.47,3.06,6.88,6.88,0,0,1-2.63.24,2,2,0,0,1-1-.66c-1.65-1.43-3.56-.73-5.39-.64a4.72,4.72,0,0,0-1.08.69c-2.29.12-3.74-2.21-6.25-2-1.08.1-.87-1.36.16-2a1.32,1.32,0,0,0,.74-1.7,1.28,1.28,0,0,0-.25-.4c-1.52-3.32,1.55-3.11,3.14-4.11-1.49-.85-2.13-2.61-3.65-3.46l-.94-1.08c-.63-.91,0-1.66.32-2.43,1-1.48-.11-2.88-.19-4.32a3.47,3.47,0,0,1,2.74-3.73c1.36-.38,2.87.33,4.16-.58,5.13-.06,10.26-.35,15.32.79-.21-.63.18.93-.27.44,0-.06-.29.07-.44.11.7,1.21,1.69.78,2.77.64C41.1,177.73,44.32,177.12,47.54,178.12Z"/><path class="cls-8" d="M193.54,189.11c5.78-2.25,11.88-1.31,17.64-.73s10.89-1.66,16.43-1.18a91.44,91.44,0,0,0,10.47-.09c2.11-.06,3,1.5,3.59,2.94.73,2-1.22,1.84-2.4,2.19-12.58-.76-25.17-.53-37.76-.25-1.81-.84-3.73-.15-5.58-.44A3.75,3.75,0,0,1,193.54,189.11Z"/><path class="cls-8" d="M103.71,195.25c4.66-1.39,9.54-3.06,13.24,2.24.41.59,1.16.23,1.59-.37,3.81,0,7.56-3.24,11.44-.26a1.63,1.63,0,0,1-.44,1.41c-4.92,1.37-10,1.56-15,1.76-1.54-.91-3.25-.2-4.87-.48-.64-.11-1,.35-.4.2.24,0,.46.17.63.54-4.68,1.49-9.58,1-14.35,1.67a9,9,0,0,0-2.06-.76c-2.29-.42-5.84.37-3.92-4.09,4.23-3.72,9.33-1.34,14.17-1.86.49.36.27,1.11.37,1.77C104.18,196.31,104.22,195.61,103.71,195.25Z"/><path class="cls-9" d="M242.53,167.12c0,.93,2.18,2.61-.79,2.53a48,48,0,0,1-5.2-.54,8.77,8.77,0,0,1-3.06-2.87c-.29-.8-.18-1.41.79-1.59A9.88,9.88,0,0,1,238,165c3.6.09,7.28-.6,10.75,1,1.08,2,2.49.33,3.75.35a25.46,25.46,0,0,1,3.35.67c1.1.37,3.06.2,2.63,2-.29,1.21-.57,3-2.64,3.05-.45,0-2.33-.79-1,1.09,1.62,2.36.45,4.09-1.29,5.69a4.71,4.71,0,0,0-5.95,1.22c-3.73-2.24-3.37-5.87-2.67-9.21.52-2.45.77-3.93-2.33-3.79l-.23-.29C242.05,167.16,242.12,167.26,242.53,167.12Z"/><path class="cls-10" d="M129.54,198.27v-1.16c3.85-2.32,8-2,11.52-1.62-2.83-2.05-7.09,1.51-10.52-1.38,1.07-2.35,3.2-1.9,5.17-2,5.13-.3,10.29.55,15.39-.57a4.19,4.19,0,0,1,2.35.55c3,1.3,6.16,4.28,7.82-1.44,4.2,1.15,8.75-1.92,12.77,1,.79.59,1.39,1.43,2.5,1.45a.66.66,0,0,1,1.12,0c-6.3,2.2-13,1.8-19.43,2.42C148.67,196.51,139.19,198.38,129.54,198.27Z"/><path class="cls-9" d="M189.54,168.11c.38,3.87-1.81.77-2.74,1.1-5.44,1.94-10.88,2-16.63,2.11a62,62,0,0,0-13.32,2.27c-2.6.67-3.4,0-3.31-2.48-1.17-1.33-3.12.32-4.26-1.13a124.68,124.68,0,0,1,20.86-2c3.07-1,6.31.26,9.37-.75l2.65-.25C184.7,166.86,187.44,165.33,189.54,168.11Z"/><path class="cls-9" d="M16.54,177.13c-1.1,1.11-2.41,2.12-2,4-1,1.33,1.55,2.66,0,4l-1,2.11C11,186,8,185,10.25,181.18c.7-1.15-.29-1.28-1-1.66-3.81-2.06-3.8-2.08-5.59-6.17L16.81,176A1.64,1.64,0,0,0,16.54,177.13Z"/><path class="cls-11" d="M39.54,200.11c5.53-2.66,11-4.69,15.41,1.9.34.51,1.91,0,2.58,1-4,1.3-8,.61-12.06.43-1.74-.07-3.5,0-5.24-.13H38.51C37.81,201.86,38.44,200.91,39.54,200.11Z"/><path class="cls-11" d="M58.54,203c-.38-1.85-.76-3.7-1.31-6.36,4.84,2.58,9.73-1.16,14.31,1.5.75,4.06-1.74,4.56-4.82,4.4-1-.47-1.78-.52-2.16.74H62C60.81,203.55,59.62,204,58.54,203Z"/><path class="cls-11" d="M177.66,193.16h-1.12c3-5.55,8.05-3.73,12.68-3.51a26.1,26.1,0,0,0,4.32-.49,1.84,1.84,0,0,1,2,1.66,1.93,1.93,0,0,1,0,.34c-.48.68-1.55.35-2,1.14a10,10,0,0,1-5.08.7c-2.33-.41-4.67-.83-7,.2Z"/><path class="cls-12" d="M202.78,200.27c-.68,3.52-3.85,5.09-6.29,6.65s-2.94-1.93-4.1-3.43c-.24-1.47-1-3.1,1.15-3.87C198.6,196.51,200.69,196.66,202.78,200.27Z"/><path class="cls-13" d="M202.78,200.27c-3.16-2.59-3.89-2.34-6.68,1-1.29,1.56-1.55-1.06-2.57-1.15-.52-.4-1.21-.48-1.7-.93-.74-1-2.45-1.21-2.24-2.91,6-.61,12.1.28,18.71-1.3C206.71,197.6,205.53,199.71,202.78,200.27Z"/><path class="cls-14" d="M66.54,202.11c3,.36,4.28-1.47,5-4h1a.58.58,0,0,1,.79-.21.53.53,0,0,1,.21.21l1,1c1.28,2.29,3.1,1.85,5,1h2l.75-.12a19,19,0,0,1,6.85.29c1.72.84,3.72-.24,5.4.83l1,.85c-10,.52-20,1.73-30,1.28C65.21,202.28,65.46,201.82,66.54,202.11Z"/><path class="cls-15" d="M47.54,178.12c-3.64.18-7.38-.43-10.74,1.73-1.18.76-1.39-.41-2-1.25-1.08-1.63.15-1.42,1-1.64a122.94,122.94,0,0,1,17.38,0c1.32.46,3.1-.43,4,1.17.44.77,1.13,1.84.31,2.66a1.6,1.6,0,0,1-2.24-.11C53.2,178.24,50.35,178.28,47.54,178.12Z"/><path class="cls-16" d="M14.43,188.31c4.06-1.22,3,4,7.37,4.15-3.13,1.52-7.13-1.13-6.26,3.44-.25.45-.57.53-1,.16C13.89,193.49,11.61,191,14.43,188.31Z"/><path class="cls-17" d="M58.54,203l3.45.27a75.55,75.55,0,0,1-21.76,0c1.19-.3,1.52-2.55,3.24-1.54,4.51,2.65,9.37.88,14.06,1.24Z"/><path class="cls-18" d="M238,165l-4.4.28c-1.69,1.51-3.73,1.15-5.73,1a4.85,4.85,0,0,1-2.31-1.06L218.1,165A60,60,0,0,1,238,165Z"/><path class="cls-3" d="M30.54,202.11l1-3C34,198,36,199.45,38,200.47a2.79,2.79,0,0,1-.47,2.76l-2-.12C34.05,201.88,32,203.3,30.54,202.11Z"/><path class="cls-19" d="M189.54,168.11c-2.22-2-5-.46-7.38-1.11,3.71-1.38,7.6-.45,11.38-.87.14.75,1.13,2.19-.83,1.51C191.42,167.18,190.56,167.7,189.54,168.11Z"/><path class="cls-20" d="M104.52,174.22c-2.3,1.92-5.87-.24-7.92,2.48L95.22,175C98.26,173.91,101.41,174.4,104.52,174.22Z"/><path class="cls-21" d="M192.53,199.11l1,1-1.14,3.38c-1.45-1.15-2.83-2.36-3.32-4.27a2.44,2.44,0,0,1,3.45-.12Z"/><path class="cls-22" d="M192.53,199.11l-3.45.11c-1.55-1.28-2.65-2.48.51-2.95C190.37,197.42,192.71,197,192.53,199.11Z"/><path class="cls-23" d="M247.54,180.11c1.32-3.66,3.47-3.23,6-1.22-1.31.6-3.16-.62-4.11,1.22Z"/><path class="cls-20" d="M90.51,175.25c-3.33,1.8-6.89.51-10.34.76C83.56,175,87.05,175.28,90.51,175.25Z"/><path class="cls-24" d="M205.34,222.87c-.94-.25-1.68-.7-1.55-1.66a1.66,1.66,0,0,1,1.79-1.4,1.27,1.27,0,0,1,1.44,1.07,1.16,1.16,0,0,1,0,.49A1.84,1.84,0,0,1,205.34,222.87Z"/><path class="cls-25" d="M223.09,46.93c-.16.84-.5,1.52-1.54,1.35a1.71,1.71,0,0,1-1.49-1.64,1.33,1.33,0,0,1,1.23-1.42,1.27,1.27,0,0,1,.34,0C222.59,45.35,222.87,46.12,223.09,46.93Z"/><path class="cls-26" d="M212.53,165.13a9.68,9.68,0,0,1-9,.13Z"/><path class="cls-27" d="M44.16,38.48a1.29,1.29,0,0,1-1.29-1.22,1.62,1.62,0,0,1,1.45-1.71,1.19,1.19,0,0,1,1.46.86,1.14,1.14,0,0,1,0,.58A1.59,1.59,0,0,1,44.16,38.48Z"/><path class="cls-28" d="M9.12,95.34a1.58,1.58,0,0,1,.07,3.14,1.4,1.4,0,0,1-1.52-1.27,1.61,1.61,0,0,1,0-.22C7.65,96,8.38,95.67,9.12,95.34Z"/><path class="cls-29" d="M248.3,102.16a1.5,1.5,0,0,1-1.75-1.18,1.23,1.23,0,0,1,0-.19,1.36,1.36,0,0,1,1-1.63,1.16,1.16,0,0,1,.37,0,2.09,2.09,0,0,1,1.35,1.18,1.27,1.27,0,0,1-.51,1.71A1.41,1.41,0,0,1,248.3,102.16Z"/><path class="cls-30" d="M27.53,201.13v1c.35.18.46.36.35.55s-.24.27-.35.27l-7-1v-.87A10.83,10.83,0,0,1,27.53,201.13Z"/><path class="cls-31" d="M118,4.21a1.57,1.57,0,0,1-3.13.24c-.19-1,.51-1.44,1.4-1.49A1.49,1.49,0,0,1,118,4.17Z"/><path class="cls-32" d="M249.1,148.92a1.38,1.38,0,0,1-1.63-1.07,1.24,1.24,0,0,1,0-.27,1.51,1.51,0,0,1,1.22-1.76h0c1-.17,1.48.5,1.6,1.33A1.78,1.78,0,0,1,249.1,148.92Z"/><path class="cls-19" d="M179.51,167.25c-3,1.71-6.23.62-9.37.75C173.2,167,176.36,167.2,179.51,167.25Z"/><path class="cls-33" d="M28.76,53.11a1.42,1.42,0,0,1,1.61,1.2,2.09,2.09,0,0,1,0,.25,1.54,1.54,0,0,1-1.56,1.52h-.05a1.15,1.15,0,0,1-1.3-1,1,1,0,0,1,0-.17A1.7,1.7,0,0,1,28.76,53.11Z"/><path class="cls-34" d="M62.89,21.25a1.3,1.3,0,0,1,1.57,1,1.24,1.24,0,0,1,0,.33,1.41,1.41,0,0,1-1.2,1.58h-.18c-.89.13-1.59-.17-1.61-1.2A1.66,1.66,0,0,1,62.89,21.25Z"/><path class="cls-35" d="M229.38,56.16a1.78,1.78,0,0,1,1.72,1.43,1.22,1.22,0,0,1-.74,1.57,1.17,1.17,0,0,1-.46.08,1.58,1.58,0,0,1-1.73-1.37,1.37,1.37,0,0,1,1-1.67A.93.93,0,0,1,229.38,56.16Z"/><path class="cls-36" d="M106.45,4.37a1.53,1.53,0,0,1,1.68,1.3c.18,1-.48,1.46-1.33,1.59a1.34,1.34,0,0,1-1.66-.89,1.57,1.57,0,0,1,0-.3C105,5.16,105.59,4.64,106.45,4.37Z"/><path class="cls-37" d="M93.08,10.23c-.85-.21-1.53-.69-1.3-1.62a1.52,1.52,0,0,1,1.73-1.28h0a1.39,1.39,0,0,1,1.37,1.41,2.13,2.13,0,0,1,0,.25C94.7,9.85,94,10.19,93.08,10.23Z"/><path class="cls-38" d="M198.62,229c-2.08-.13-2.56-.76-2.45-1.63a1.58,1.58,0,0,1,1.75-1.33c.89,0,1.58.52,1.36,1.49A5,5,0,0,1,198.62,229Z"/><path class="cls-39" d="M95,245.37c-.87-.07-1.66-.3-1.89-1.23a1.34,1.34,0,0,1,1.26-1.69,1.67,1.67,0,0,1,1.81,1.28C96.55,244.82,95.72,245.09,95,245.37Z"/><path class="cls-40" d="M186.47,17.61a1.36,1.36,0,0,1-1.54,1.51,1.55,1.55,0,0,1-1.49-1.61v0a1.2,1.2,0,0,1,1.18-1.24h.08A1.65,1.65,0,0,1,186.47,17.61Z"/><path class="cls-41" d="M10.68,156.67c-.19,1.32-.7,1.92-1.7,1.75a1.35,1.35,0,0,1-1.16-1.82c.16-.51.91-1.21,1.35-1.17A1.64,1.64,0,0,1,10.68,156.67Z"/><path class="cls-42" d="M247.19,158.59c-1,0-1.66-.46-1.53-1.44a2.19,2.19,0,0,1,1-1.5c1-.46,1.59.32,1.78,1.11A1.6,1.6,0,0,1,247.19,158.59Z"/><path class="cls-43" d="M13.73,166.49c-.19.59-.23,1.35-1.07,1.38-1.21.06-1.69-.73-1.74-1.8,0-.84.69-1.1,1.31-1.11C13.18,164.93,13.63,165.58,13.73,166.49Z"/><path class="cls-44" d="M252.49,166.34c-1,.54-2,1.43-3,1.55-1.81.21-2.13-.63-.71-1.9Z"/><path class="cls-45" d="M149.28,170c1.32.74,3.27-.89,4.26,1.13-2.32-.37-4.85.87-7-.91Z"/><path class="cls-46" d="M193.57,192.25a1.91,1.91,0,0,1,2-1.14c2,.3,4.17-.74,6,.88Z"/><path class="cls-47" d="M153.47,5.21c.92.2,1.52.74,1.39,1.7a1.31,1.31,0,0,1-1.4,1.21A1.55,1.55,0,0,1,153,8c-.52-.19-1.23-.91-1.21-1.37a1.45,1.45,0,0,1,1.47-1.43A.9.9,0,0,1,153.47,5.21Z"/><path class="cls-48" d="M163.05,7.39c.73.24,1.43.69,1.38,1.65s-.9,1.19-1.75,1.15a1.14,1.14,0,0,1-1.19-1.09V9a1.44,1.44,0,0,1,1.26-1.6Z"/><path class="cls-49" d="M85.5,12.26a1.68,1.68,0,0,1-1.68,1.41,1.24,1.24,0,0,1-1.3-1.18,1.22,1.22,0,0,1,.08-.5,1.4,1.4,0,0,1,1.62-1.14l.19.05a1.23,1.23,0,0,1,1.09,1.35Z"/><path class="cls-50" d="M71.27,19c-.8-.25-1.56-.67-1.34-1.61a1.61,1.61,0,0,1,1.81-1.25c.87.1,1.53.64,1.32,1.57A1.69,1.69,0,0,1,71.27,19Z"/><path class="cls-51" d="M198,25.1a1.2,1.2,0,0,1-1.27,1.11h-.08A1.6,1.6,0,0,1,195,24.67a1.3,1.3,0,0,1,1.22-1.39,1.24,1.24,0,0,1,.43,0A1.6,1.6,0,0,1,198,25.1Z"/><path class="cls-52" d="M51.54,31.86a1.22,1.22,0,0,1-1.17-1.19A1.43,1.43,0,0,1,51.51,29l.24,0c.88-.1,1.69.31,1.57,1.32A1.84,1.84,0,0,1,51.54,31.86Z"/><path class="cls-53" d="M27.54,203v-.82h3c1.68.25,3.6-.66,5,1Z"/><path class="cls-54" d="M216.13,39.67c-.23.8-.47,1.72-1.54,1.44a2.24,2.24,0,0,1-1.34-1.2,1.23,1.23,0,0,1,.69-1.61,1,1,0,0,1,.49-.09C215.45,38.08,215.79,38.9,216.13,39.67Z"/><path class="cls-55" d="M35,48.07c-.81.06-1.36-.18-1.5-.94a1.44,1.44,0,0,1,.94-1.81l.17,0c.9-.22,1.67.13,1.75,1.12S35.66,47.8,35,48.07Z"/><path class="cls-56" d="M217.24,212a1.93,1.93,0,0,1-1.43,1.77c-1.05.25-1.5-.55-1.47-1.4a1.45,1.45,0,0,1,1.43-1.47h.17C216.54,211,217.26,211.11,217.24,212Z"/><path class="cls-57" d="M10.25,87.63C10.57,86.49,11,85.88,12,86c.71.08,1.27.53,1.14,1.25-.17,1-.77,1.88-2,1.58C10.76,88.7,10.49,88,10.25,87.63Z"/><path class="cls-58" d="M45.55,215.38a4.77,4.77,0,0,1,.82,1.5c.2.69-.3,1.21-1.08,1.24a1.49,1.49,0,0,1-1.64-1.32.28.28,0,0,1,0-.09C43.57,216.12,43.71,215.38,45.55,215.38Z"/><path class="cls-59" d="M19.81,65.79c.33-.78.77-1.51,1.73-1.43s1.23,1,1,1.79A1.34,1.34,0,0,1,21,67.31a1.16,1.16,0,0,1-.32-.08,1.18,1.18,0,0,1-.93-1.37A.64.64,0,0,1,19.81,65.79Z"/><path class="cls-60" d="M236.48,65.89a1.3,1.3,0,0,1-.93,1.6,1.2,1.2,0,0,1-.33.05,1.51,1.51,0,0,1-1.6-1.42h0a1.39,1.39,0,0,1,1-1.67.83.83,0,0,1,.22,0C235.73,64.35,236.23,65.08,236.48,65.89Z"/><path class="cls-61" d="M242.26,78.7c-.24.73-.65,1.45-1.66,1.15a1.58,1.58,0,0,1-1.06-1.93,1.15,1.15,0,0,1,1.27-1l.12,0a1.49,1.49,0,0,1,1.36,1.59Z"/><path class="cls-62" d="M251.29,110.74c-.24.71-.7,1.4-1.68,1.16s-1.17-1-1-1.9a1.23,1.23,0,0,1,1.37-1,1.39,1.39,0,0,1,1.36,1.42A1.88,1.88,0,0,1,251.29,110.74Z"/><path class="cls-63" d="M54.32,223.4a1.4,1.4,0,0,1-1.81.8l-.19-.09a1.38,1.38,0,0,1-.9-1.72,2.39,2.39,0,0,1,.13-.28,1.15,1.15,0,0,1,1.49-.65l.11,0A1.62,1.62,0,0,1,54.32,223.4Z"/><path class="cls-64" d="M63.73,229.39a1.68,1.68,0,0,1,1.64,1.46c.15,1-.62,1.41-1.48,1.33a1.4,1.4,0,0,1-1.41-1.38,1.64,1.64,0,0,1,0-.22A1.21,1.21,0,0,1,63.73,229.39Z"/><path class="cls-65" d="M177.06,240.18c-.6-.2-1.34-.2-1.39-1.11a1.44,1.44,0,0,1,1.27-1.61h.19a1.18,1.18,0,0,1,1.36,1,.5.5,0,0,1,0,.12C178.62,239.58,177.89,239.93,177.06,240.18Z"/><path class="cls-66" d="M85,239.62c.79.25,1.6.5,1.55,1.54a1.27,1.27,0,0,1-1.2,1.34,1.51,1.51,0,0,1-.42-.05,2.11,2.11,0,0,1-1.29-1.22C83.31,240.2,84.23,239.91,85,239.62Z"/><path class="cls-67" d="M223.57,204.45a1.57,1.57,0,0,1-1.37,1.7c-.89.17-1.64-.19-1.5-1.25a1.82,1.82,0,0,1,1.61-1.58,1.11,1.11,0,0,1,1.25,1A1.09,1.09,0,0,1,223.57,204.45Z"/><path class="cls-68" d="M186,232.86c.59.18,1.34.17,1.38,1.07a1.52,1.52,0,0,1-1.38,1.64h-.08a1.14,1.14,0,0,1-1.35-.89,1.1,1.1,0,0,1,0-.18C184.41,233.47,185.09,233.09,186,232.86Z"/><path class="cls-69" d="M164.4,241.92c.78.07,1.27.55,1.17,1.27a1.5,1.5,0,0,1-1.62,1.37h-.09a1.25,1.25,0,0,1-1.19-1.31v0C162.74,242.24,163.48,241.89,164.4,241.92Z"/><path class="cls-70" d="M6.47,111.82a1.47,1.47,0,0,1-.15-2.94h.23A1.15,1.15,0,0,1,7.71,110v.08a1.47,1.47,0,0,1-1.21,1.7Z"/><path class="cls-71" d="M181.53,193.15c2.27-1.71,4.6-1.44,7-.2Z"/><path class="cls-72" d="M6,121.53a1.09,1.09,0,0,1-1.23-.93.89.89,0,0,1,0-.23c0-.7.09-1.41.93-1.48a1.13,1.13,0,0,1,1.3.93c0,.06,0,.11,0,.17A1.45,1.45,0,0,1,6,121.53Z"/><path class="cls-73" d="M244.61,86.09a1.46,1.46,0,0,1,1.31,1.59s0,.09,0,.14a1.21,1.21,0,0,1-1.22,1.2h-.07a1.39,1.39,0,0,1-1.33-1.45,1.6,1.6,0,0,1,1.33-1.48Z"/><path class="cls-74" d="M252,134.09c-.3.94-.8,1.32-1.54,1.15-1-.23-1.2-1-1-1.9a1.09,1.09,0,0,1,1.19-1,1,1,0,0,1,.24,0A1.36,1.36,0,0,1,252,134Z"/><path class="cls-75" d="M8.05,143.55c-.16.91-.6,1.59-1.6,1.46a1.39,1.39,0,0,1,.31-2.7C7.49,142.24,7.9,142.84,8.05,143.55Z"/><path class="cls-76" d="M206.1,30.77a1.32,1.32,0,0,1-1.39,1.16,1.54,1.54,0,0,1-1.45-1.61s0-.06,0-.09a1.08,1.08,0,0,1,1-1.12.77.77,0,0,1,.3,0,1.53,1.53,0,0,1,1.49,1.56Z"/><path class="cls-77" d="M109.87,200.29a3.46,3.46,0,0,1-.89-.3c-.41-.28-.67-.83.09-.8,1.84,0,3.85-.76,5.46.83Z"/><path class="cls-78" d="M141.42,4.54c-.26.73-.72,1.42-1.63,1.21A1.54,1.54,0,0,1,138.59,4c.08-.82.78-1,1.37-1a1.36,1.36,0,0,1,1.47,1.24A1.61,1.61,0,0,1,141.42,4.54Z"/><path class="cls-79" d="M18.49,74.55c-.37,1.1-.78,1.81-1.79,1.74a1.15,1.15,0,0,1-1.12-1.17,1.52,1.52,0,0,1,0-.21c.11-.86.57-1.67,1.58-1.45C17.71,73.57,18.12,74.22,18.49,74.55Z"/><path class="cls-80" d="M74.26,235.6c-.28.82-.78,1.4-1.71,1.24a1.45,1.45,0,0,1-1.2-1.68.17.17,0,0,1,0-.07,1.08,1.08,0,0,1,1.13-1,.69.69,0,0,1,.2,0A1.7,1.7,0,0,1,74.26,235.6Z"/><path class="cls-81" d="M131.43,4.59c-.4.21-.93.7-1.45.7-.9,0-1.62-.63-1.3-1.57.13-.38,1.06-.61,1.64-.67C131.07,3,131.47,3.5,131.43,4.59Z"/><path class="cls-82" d="M37.55,203.23v-3.11c.43-.8.9-1.51,2-1v1c-.34,1-.69,2.09-1,3.13Z"/><path class="cls-3" d="M66.54,202.11l-1,1.13h-1L63,200.61C64.71,200.2,65.63,201.14,66.54,202.11Z"/><path class="cls-83" d="M129.49,171.92c-1.87,1.91-3.87,1.55-5.92.33Z"/><path class="cls-84" d="M251.83,124.05c-.11.66-.37,1.24-1.11,1.28a1.15,1.15,0,0,1-1.33-.93,1.1,1.1,0,0,1,0-.57,1.79,1.79,0,0,1,1-1.29C251.49,122.36,251.7,123.24,251.83,124.05Z"/><path class="cls-85" d="M156.26,246.27c-.32.95-1.08,1-1.87.94a1,1,0,0,1-1-1,1.33,1.33,0,0,1,0-.28,1.15,1.15,0,0,1,1.21-1.09h.08A1.56,1.56,0,0,1,156.26,246.27Z"/><path class="cls-86" d="M14.59,196.06c.31-.06.63-.12,1-.16.64.35,1.84.42,1.4,1.48s-1.57.74-2.49.6C14.49,197.34,14.54,196.7,14.59,196.06Z"/><path class="cls-71" d="M16.54,177.13c-.86-.61-.24-.88.27-1.18l3.71.22C19.46,177.58,17.9,177,16.54,177.13Z"/><path class="cls-87" d="M29.64,125.11l-.22-1.76c-1.19-3.1,1.89-3.7,3.15-5.36,4-.53,6.8.46,6.92,5.12C36.25,124,33.54,127.47,29.64,125.11Z"/><path class="cls-88" d="M225.69,122.05c2.13,2.31.55,4-1.19,5.25a4.5,4.5,0,0,1-6-.27c-2.12-1.92-3-4.32-1-7a5.21,5.21,0,0,1,3.33,1.46,8.14,8.14,0,0,0,1.75,1.45C223.79,123.25,224.33,121.19,225.69,122.05Z"/><path class="cls-89" d="M29.64,125.11c3.55.61,6.31-2.62,9.85-2a4.08,4.08,0,0,1-3.1,4.85l-.16,0C33.48,128.64,31,128.06,29.64,125.11Z"/><path class="cls-90" d="M225.69,122.05c-1.57.32-1,4.91-4.15,2.07.9-1.35.17-1.83-1.08-2l-3-2,1.09-.92c1.65-.43,3.34.29,5-.1C225.92,118.89,225.45,120.71,225.69,122.05Z"/><path class="cls-91" d="M32.57,118c0,2.38-3.43,2.79-3.15,5.36C27.77,120,29.6,118.65,32.57,118Z"/><path class="cls-92" d="M223.58,119c-1.63,2-3.32.82-5,.1C220.21,117.78,221.87,117.11,223.58,119Z"/><path class="cls-93" d="M130.54,194.11c4.67.09,9.42-.73,15.32,1.56l-16.32,1.44c-3.67-1.23-7.33,1.86-11,0,1.34-2.32,4.35-1.29,6-3,1.66-1.26,3.33.2,5,0Z"/><path class="cls-94" d="M225.55,165.26h1.92c.62.88,1.83,1.16,2.23,2.25,0,.21-.11.41-.16.62-6.2.67-12.39,1.36-18.6,2-1.29.13-2.76.26-3.42-1.32-.16-.38-.16-1.22,0-1.3,1.15-.5,2.29-.68,2.67,1C214.82,165,221.14,169.7,225.55,165.26Z"/><path class="cls-95" d="M94.54,201.11h-6c-2.18-1.32-4.78.3-7-1h0c.7-2.72,1.48-5.65,5-2.81,1.38,1.1,2-1.21,3-.19C88.86,201.37,93.34,199.19,94.54,201.11Z"/><path class="cls-11" d="M39.53,199.12l-2,1c-2.29,1.43-3.92-1.16-6-1l-1-2,9.17.82c.1,0,.27.28.23.38A4.6,4.6,0,0,1,39.53,199.12Z"/><path class="cls-95" d="M79.54,200.11c-2.25,2.59-4.24,3.87-5-1,1.4.1,2.61.6,4.18-.36C80.62,197.59,79.64,199.38,79.54,200.11Z"/><path class="cls-96" d="M234.54,166.11l2,3c-2.35-.23-5.25,3.39-7-1C230.81,166.46,233,167.18,234.54,166.11Z"/><path class="cls-97" d="M129.54,194.11c-1.67,1.8-3.33-.7-5,0C126.2,192.36,127.87,192.81,129.54,194.11Z"/><path class="cls-95" d="M73.54,198.12h-1c1.12-1.5,2.57-.86,4.3-.93C75.71,198.61,74.53,197.89,73.54,198.12Z"/><path class="cls-98" d="M160.75,219.59c.77-.85,1.84-.51,2.77-.72,1.53-.34,3.17-1.12,2.5-2.94-1-2.54-2,.19-3,.34-2.49.36-4.39-.19-5-2.73-.7-2.71.73-4.48,3.25-5.26a4.13,4.13,0,0,1,5.13,1.94c1.51,2.55,3.3,5.18,1.52,8.27a5.11,5.11,0,0,1-5.45,2.63A1.87,1.87,0,0,1,160.75,219.59Z"/><path class="cls-99" d="M117.32,218.63c-1.1,2.65.17,7.28-5,7.44-3,.09-5-1.32-5-4.79.09-4.52,2.5-8.35,5.44-8.25C116.12,213.14,117.34,215.2,117.32,218.63Z"/><path class="cls-100" d="M133.79,222a4.73,4.73,0,0,1-4.68,3.18c-3.73.09-4.34-2.63-4.53-5.26-.21-2.95,1.73-4.67,4.58-4.77C133,215,133.61,217.81,133.79,222Z"/><path class="cls-101" d="M92.62,217.65c2,1.69,4.37,1.31,5.69,3.52-1.37,0-2.63.33-3.57-.07-2.06-.87-5.47-1.13-5.63-3.3-.2-2.66,3.41-1.56,5.11-2.63.67-.42,1.62-.33,2.37-.64,1.09-.46,2.19-1.11,1.92-2.53-.32-1.69-1.49-2.07-3-1.48-1,.4-2.08.71-2.32-.68-.2-1.2,1-1.61,1.93-1.77,2.73-.44,5.18.22,6.1,3s-1,4.26-3.43,5.1C96.24,216.71,94.63,217.08,92.62,217.65Z"/><path class="cls-102" d="M143,217.9c.14-1.77,1.55-2.35,2.24-3.44,1.35-2.14,2.33-1.44,2.83.53.75,2.89,1.31,5.81,2,8.72.21.89.2,1.69-.8,2-1.45.46-1.59-.62-1.79-1.62a19.18,19.18,0,0,1-.79-3.89C146.7,217.39,145.2,217.1,143,217.9Z"/><path class="cls-103" d="M27.53,201.13h-7a8.6,8.6,0,0,1,7.38-.75.83.83,0,0,1-.06.44C27.79,200.92,27.64,201,27.53,201.13Z"/><path class="cls-104" d="M14.54,185.12c.64-1.34-3.2-2.67,0-4C15,182.45,17.59,183.78,14.54,185.12Z"/><path class="cls-3" d="M104.56,195.43c1.17,1-.41,2.3-.79,3.65-.08-1.16-.11-2.32-.25-3.46C103.46,195.08,103.54,195,104.56,195.43Z"/><path class="cls-3" d="M234.54,166.11c-.65,3.22-3.24,1.57-5,2-.2-1.3-3.41-.45-2.07-2.87h6.12Z"/><path class="cls-3" d="M242.53,167.12c-1,.3-2,1.48-3.09.11a1,1,0,0,1,0-.8,2.24,2.24,0,0,1,3.06.68Z"/><path class="cls-105" d="M81.54,200.12c2.32.38,4.88-.92,7,1C86.2,200.73,83.65,202,81.54,200.12Z"/><path class="cls-106" d="M220.46,122.07c.9-1.06,2.07-1.4,2.76-.08s-.33,2-1.68,2.13Z"/><path class="cls-107" d="M162.17,210.27c1.4,0,2.14.61,2.17,1.73,0,1.44-1,1.93-2.25,2a1.44,1.44,0,0,1-1.63-1.23,1.09,1.09,0,0,1,0-.18A2.14,2.14,0,0,1,162.17,210.27Z"/><path class="cls-108" d="M114.79,218.51c-.56,2.12,0,4.88-2.75,5.3a2.16,2.16,0,0,1-2.23-3c.63-2,0-5.11,3.12-5.42C115,215.17,114.57,217.31,114.79,218.51Z"/><path class="cls-109" d="M130.37,219.64c-.11.8-.56,1.29-1.28,1.27a1.23,1.23,0,0,1-1.35-1.08,1.44,1.44,0,0,1,1.42-1.55l.09,0C130.08,218.39,130.26,219,130.37,219.64Z"/><path class="cls-110" d="M92.8,125.09l6,.45c-1.71,10.21-7,19.38-14.57,19.38-8,0-10.53-12.53-8.41-25.49A74.52,74.52,0,0,1,78.23,109c-2.8-2.61-4-6.41-4.51-9.54l4.85-3.2a20.31,20.31,0,0,0,1.64,7.15c4-9.91,9.85-16,15.32-16,5.2,0,8.69,3.58,7.66,10.28-1.64,10.06-11.28,14.39-16.07,14.39a7.82,7.82,0,0,1-1.37-.08c-.47,2.09-.88,4.25-1.3,6.49-2,12.44-1.64,20.94,1.58,20.94C88.69,139.4,91.5,132.25,92.8,125.09ZM86.71,108h.21c6,0,9-7.45,9.64-11.92.48-2.76.14-4.85-1.1-4.85C93.07,91.25,89.38,98.18,86.71,108Z"/><path class="cls-110" d="M116.72,113.22l1,.48c-1.76,4.7-4.37,7.54-6.85,8.6-1.93,4.08-4.41,6.29-6.71,6.29-3.55,0-5.76-4.42-4.36-12.73,1.17-7.16,3.91-12.2,5.63-12.2a2.67,2.67,0,0,1,1.8,1c1.17-1.68,2.43-2.74,3.33-2.74,3,0,4,5.09,3,11.38a39.42,39.42,0,0,1-1.44,6C113.71,118.4,115.33,116.43,116.72,113.22ZM106.32,122c-1.39-1-2.34-3-2.43-5.86-.72,4.51-.27,7.63.85,7.63C105.28,123.78,105.78,123.11,106.32,122Zm-.63-9c-.49,2.83.27,5.09,1.67,6.24.31-1.1.58-2.3.85-3.6.9-4.57,1-8.31.14-8.36S106.23,109.47,105.69,113Z"/><path class="cls-110" d="M140.63,113.22l1,.48c-2.52,7-6.35,14.84-9.28,14.84-2.16,0-3-2.79-2.47-5.91.81-5,4.28-14.94,2.61-14.94-1.4,0-5.09,11.87-5.85,19.46h-5.41c1.53-4.9,5.23-19.46,3.51-19.46-1.39,0-5,11.87-5.8,19.46h-5.41a139,139,0,0,0,4-23.54l5.36-.1c-.72,2.36-1.39,6.2-1.93,9.13,1.57-6.1,4.28-10.76,7-10.76,2.11,0,2.47,4.42.81,10.71,1.57-6.1,4.23-10.71,6.93-10.71,2.12,0,3.11,1.87,2.48,5.72-.72,4.56-4.55,14.36-2.61,14.36C136.67,122,139.15,116.58,140.63,113.22Z"/><path class="cls-110" d="M155.32,113.22l1,.48c-2.56,7.2-7.2,15.42-12.15,14.84H144c-1.26,0-1.89-.87-2.25-2.26-.45,3.08-.76,6.25-1.08,9.51l-4.41,0a323.32,323.32,0,0,0,5.27-32h5a3.77,3.77,0,0,1,2.75-1.78c3,0,4,5.09,3,11.38A35.42,35.42,0,0,1,148.92,124C151.62,121,153.2,118.21,155.32,113.22Zm-8.47,2.4c.9-4.57,1-8.31.14-8.36s-2.16,3.6-3,8.12-1,8.31-.18,8.4S146,120.18,146.85,115.62Z"/><path class="cls-110" d="M171.84,113.22l1,.48c-2.52,7-6.35,14.84-9.28,14.84-1.93,0-2.79-2.4-2.25-7.11-1.84,4.37-3.74,7.11-5.58,7.11-2.21,0-3-2.93-2-8.69,1.22-7.31,2.16-11.29,3.38-16.14h5C160.5,109,157,122,158.92,122c1,0,3-5.57,4.23-10.76a68.8,68.8,0,0,1,1.85-7.49h5C168.2,109,164.86,122,166.76,122,168,122,170.4,116.58,171.84,113.22Z"/><path class="cls-111" d="M129,150.62l.74.28c-1.81,4.17-4.36,7.91-8.48,8.32a6.74,6.74,0,0,1-1.48.19c-2.37,0-3.37-1.79-3.11-3s3.33-3.18,3.14-2.39c-.49,1.68-.65,3.43.45,3.43.62,0,1.3-.9,1.59-2.33.52-2.53-.33-4.53-.62-6.73-.84,1.73-1.42,3.08-1.84,3.85l-.78-.31a34.47,34.47,0,0,0,2.62-6.39h0a1.28,1.28,0,0,1,.07-.28,5.74,5.74,0,0,1,2-3.37l2.85.41a7.7,7.7,0,0,0-1.33,2.8c-.61,3,1.78,6.17,1.07,9.61a5.9,5.9,0,0,1-.42,1.29A23.15,23.15,0,0,0,129,150.62Z"/><path class="cls-111" d="M140.65,150.62l.78.28c-1.81,4-4.57,8.48-6.67,8.48-1.55,0-2.14-1.59-1.78-3.37.58-2.86,3.07-8.54,1.88-8.54-1,0-3.63,6.78-4.18,11.12H126.8a213.84,213.84,0,0,0,5.11-22.49H136c-1.42,4.56-2.39,8.16-3.91,14.2,1.13-3.49,3.07-6.15,5-6.15,1.52,0,2.24,1.07,1.78,3.26-.52,2.61-3.27,8.21-1.87,8.21C137.84,155.62,139.62,152.55,140.65,150.62Z"/><path class="cls-111" d="M152.17,150.62l.75.28a9,9,0,0,1-4.92,4.91c-1.39,2.34-3.17,3.6-4.82,3.6-2.56,0-4.15-2.53-3.14-7.28.84-4.09,2.81-7,4-7a2,2,0,0,1,1.3.58,3.87,3.87,0,0,1,2.39-1.57c2.17,0,2.88,2.91,2.14,6.51a19.84,19.84,0,0,1-1,3.46A8.06,8.06,0,0,0,152.17,150.62Zm-7.47,5a3.73,3.73,0,0,1-1.75-3.35c-.52,2.58-.19,4.36.61,4.36.42,0,.75-.35,1.14-1Zm-.46-5.16a3.26,3.26,0,0,0,1.2,3.57c.23-.64.42-1.32.62-2.06.64-2.61.68-4.75.09-4.78s-1.52,1.29-1.91,3.3Z"/><path class="cls-111" d="M168.19,150.62l.78.33c-1.72,3.19-3.5,4.78-5.21,5-1.17,2.06-2.56,3.46-4.24,3.46s-2.43-1.81-2.43-4.42c-1.2,2.61-2.62,4.42-4.24,4.42s-2.42-2-1.55-6.15a73.21,73.21,0,0,1,2.17-8h3.59c-1.17,3-3.69,10.43-2.3,10.43.71,0,2-2.8,2.88-5.6a36.26,36.26,0,0,1,1.2-4.83h3.56c-1.2,3-2.85,10.43-1.55,10.43.35,0,.68-.3,1.06-.85-.55-2.14,1.4-6.86,2.59-10.16h2.92a55.33,55.33,0,0,1-2.95,9.75C165.6,154.08,166.64,153,168.19,150.62Z"/><text class="cls-112" transform="translate(41.45 98.28) rotate(-63.64)">M</text><text class="cls-113" transform="translate(44.84 91.47) rotate(-60.75)">A</text><text class="cls-114" transform="translate(48.06 85.71) rotate(-58.06)">R</text><text class="cls-115" transform="matrix(0.57, -0.82, 0.82, 0.57, 51.59, 80.12)">T</text><text class="cls-116" transform="translate(54.8 75.54) rotate(-51.87)">E</text><text class="cls-112" transform="translate(58.56 70.73) rotate(-48.68)">S</text><text class="cls-117" transform="translate(64.43 64.23) rotate(-43.78)">S</text><text class="cls-112" transform="translate(68.84 60.03) rotate(-39.8)">E</text><text class="cls-118" transform="matrix(0.82, -0.58, 0.58, 0.82, 73.48, 56.13)">M</text><text class="cls-119" transform="translate(79.65 51.77) rotate(-30.67)">A</text><text class="cls-112" transform="translate(85.28 48.45) rotate(-26.01)">N</text><text class="cls-120" transform="translate(91.2 45.57) rotate(-21.16)">A</text><text class="cls-112" transform="translate(99.51 42.48) rotate(-15.59)">1</text><text class="cls-112" transform="matrix(0.98, -0.21, 0.21, 0.98, 103.94, 41.23)">1</text><text class="cls-112" transform="translate(111.52 39.68) rotate(-6.48)">C</text><text class="cls-121" transform="matrix(1, -0.03, 0.03, 1, 118.03, 38.93)">O</text><text class="cls-112" transform="translate(125.1 38.71) rotate(2.51)">N</text><text class="cls-112" transform="translate(131.67 39.03) rotate(6.17)">J</text><text class="cls-112" transform="matrix(0.99, 0.17, -0.17, 0.99, 136.75, 39.56)">U</text><text class="cls-122" transform="matrix(0.97, 0.24, -0.24, 0.97, 143.22, 40.67)">N</text><text class="cls-123" transform="matrix(0.96, 0.29, -0.29, 0.96, 149.61, 42.23)">T</text><text class="cls-112" transform="translate(154.84 43.82) rotate(20.54)">O</text><text class="cls-112" transform="translate(163.91 47.36) rotate(25.7)">D</text><text class="cls-112" transform="translate(169.84 50.23) rotate(29.09)">E</text><text class="cls-113" transform="matrix(0.83, 0.55, -0.55, 0.83, 177.14, 54.39)">A</text><text class="cls-124" transform="matrix(0.8, 0.61, -0.61, 0.8, 182.63, 58.05)">U</text><text class="cls-112" transform="matrix(0.76, 0.65, -0.65, 0.76, 187.87, 62.04)">D</text><text class="cls-112" transform="translate(192.85 66.4) rotate(43.39)">I</text><text class="cls-125" transform="matrix(0.7, 0.72, -0.72, 0.7, 194.78, 68.19)">T</text><text class="cls-112" transform="translate(198.59 72.06) rotate(49.33)">O</text><text class="cls-112" transform="matrix(0.6, 0.8, -0.8, 0.6, 203.2, 77.43)">R</text><text class="cls-112" transform="translate(207.08 82.77) rotate(56.38)">I</text><text class="cls-126" transform="translate(208.58 84.9) rotate(59.33)">O</text><text class="cls-112" transform="matrix(0.44, 0.9, -0.9, 0.44, 212.13, 91)">S</text><path class="cls-127" d="M101.77,132.9a166.09,166.09,0,0,1,18.14-3c3-.4,6.07-.61,9.1-.91s6.08-.42,9.12-.62,6.08-.27,9.13-.35,6.09-.13,9.14-.06a167.85,167.85,0,0,1,18.35,1v.3l-36.48,2.1-36.5,1.8Z"/></g></g></svg>