<svg xmlns="http://www.w3.org/2000/svg" viewBox="0 0 236.01 101.57"><defs><style>.cls-1{fill:#bdba84;}.cls-2{fill:#52230b;}.cls-3{fill:#51220a;}.cls-4{fill:#522109;}.cls-5{fill:#572c13;}.cls-6{fill:#552910;}.cls-7{fill:#b4af7b;}.cls-8{fill:#59220b;}.cls-9{fill:#b7b37f;}.cls-10,.cls-11{fill:#fff;}.cls-11{font-size:60px;font-family:Hamster;letter-spacing:0.02em;}</style></defs><title>LogoAux1</title><g id="Capa_2" data-name="Capa 2"><g id="Capa_1-2" data-name="Capa 1"><path class="cls-1" d="M139.46,101.57A105.65,105.65,0,0,1,85.75,86.76c-1.69-1-5.55-1.39-4.2-4.4s3-7.2,6.88-7.16c12.39.15,24.62-3,37.18-.52A74.93,74.93,0,0,0,172.4,69.1c3.73-1.73,7.58-2.26,11.52-2.83A4.92,4.92,0,0,1,189,68.56c2.59,3.46,5.06,7,7.93,10.25,2.68,3,2.31,4.6-1.14,6.72C178.62,96.07,160,101.21,139.46,101.57Z"/><path class="cls-2" d="M172.36,88.39c.76-.86,1.83-.51,2.77-.72,1.53-.35,3.17-1.13,2.49-2.94-.94-2.54-2,.19-3,.33-2.5.36-4.4-.19-5.05-2.73-.69-2.7.73-4.47,3.26-5.25A4.11,4.11,0,0,1,178,79c1.52,2.55,3.31,5.17,1.52,8.27a5.09,5.09,0,0,1-5.45,2.63A1.86,1.86,0,0,1,172.36,88.39Z"/><path class="cls-3" d="M128.92,87.42c-1.1,2.66.17,7.29-5,7.45-3,.08-5-1.32-5-4.8.1-4.51,2.51-8.34,5.44-8.24C127.73,81.93,128.94,84,128.92,87.42Z"/><path class="cls-4" d="M145.39,90.78A4.71,4.71,0,0,1,140.71,94c-3.72.09-4.34-2.63-4.53-5.26-.21-2.95,1.73-4.67,4.59-4.77C144.58,83.81,145.22,86.61,145.39,90.78Z"/><path class="cls-5" d="M104.23,86.45c2,1.69,4.37,1.31,5.69,3.51-1.37,0-2.63.34-3.58-.06-2.06-.87-5.46-1.14-5.63-3.3-.2-2.66,3.41-1.57,5.12-2.64.66-.41,1.62-.32,2.37-.63,1.09-.46,2.19-1.11,1.92-2.53-.32-1.69-1.49-2.08-3-1.48-1,.4-2.09.71-2.32-.68-.2-1.2,1-1.61,1.93-1.77,2.73-.45,5.17.22,6.09,3s-1,4.26-3.43,5.09C107.85,85.51,106.24,85.88,104.23,86.45Z"/><path class="cls-6" d="M154.58,86.7c.14-1.77,1.55-2.36,2.24-3.45,1.34-2.13,2.32-1.43,2.83.54.74,2.88,1.31,5.81,2,8.71.21.9.2,1.7-.8,2-1.44.46-1.58-.62-1.78-1.63a19.24,19.24,0,0,1-.79-3.88C158.3,86.19,156.81,85.9,154.58,86.7Z"/><path class="cls-7" d="M126.4,87.31c-.56,2.11,0,4.88-2.76,5.3-1.67.26-2.73-1.38-2.22-3,.63-2,0-5.11,3.11-5.42C126.64,84,126.18,86.11,126.4,87.31Z"/><path class="cls-8" d="M142,88.43c-.1.81-.56,1.3-1.28,1.28a1.22,1.22,0,0,1-1.29-1.62,1.21,1.21,0,0,1,1.45-1C141.68,87.19,141.86,87.82,142,88.43Z"/><path class="cls-9" d="M173.75,79.43c1.39,0,2.13.6,2.16,1.73,0,1.43-1,1.93-2.24,2A1.44,1.44,0,0,1,172,81.78,2.14,2.14,0,0,1,173.75,79.43Z"/><path class="cls-10" d="M28.89,57.1l9.11.68C35.41,73.24,27.44,87.12,16,87.12c-12.12,0-15.95-19-12.74-38.6a112.55,112.55,0,0,1,3.62-15.8C2.59,28.77.83,23,0,18.28l7.35-4.85A30.53,30.53,0,0,0,9.84,24.26C16,9.25,24.75,0,33,0c7.87,0,13.15,5.42,11.6,15.57C42.14,30.81,27.54,37.35,20.3,37.35a12.57,12.57,0,0,1-2.08-.11c-.72,3.16-1.34,6.43-2,9.82-3,18.84-2.49,31.71,2.38,31.71C22.68,78.77,26.92,67.93,28.89,57.1ZM19.67,31.26H20c9,0,13.57-11.29,14.6-18.06.73-4.17.21-7.33-1.65-7.33C29.3,5.87,23.71,16.36,19.67,31.26Z"/><path class="cls-10" d="M42.48,69c9.15-1.55,18.33-2.59,27.51-3.46,4.59-.48,9.2-.77,13.79-1.16l13.81-.87c4.6-.2,9.21-.44,13.81-.6s9.22-.3,13.84-.31c9.23-.12,18.46-.06,27.73.5v.3L97.75,66.5,42.49,69.3Z"/><path class="cls-9" d="M188.77,81.32c1.4,0,2.14.6,2.17,1.73,0,1.43-1,1.93-2.24,2a1.44,1.44,0,0,1-1.64-1.42A2.13,2.13,0,0,1,188.77,81.32Z"/><text class="cls-11" transform="translate(38.38 62.44)">ompushow</text></g></g></svg>